<?xml version="1.0" encoding="utf-8"?>
<!-- Generator: Adobe Illustrator 16.0.0, SVG Export Plug-In . SVG Version: 6.00 Build 0)  -->
<!DOCTYPE svg PUBLIC "-//W3C//DTD SVG 1.1//EN" "http://www.w3.org/Graphics/SVG/1.1/DTD/svg11.dtd">
<svg version="1.1" id="Layer_1" xmlns="http://www.w3.org/2000/svg" xmlns:xlink="http://www.w3.org/1999/xlink" x="0px" y="0px"
	 width="100px" height="100px" viewBox="0 0 100 100" enable-background="new 0 0 100 100" xml:space="preserve">
<path fill="#E6E7E8" d="M49.701,0.598c-27.283,0-49.401,22.118-49.401,49.401c0,27.284,22.118,49.403,49.401,49.403
	c27.283,0,49.402-22.119,49.402-49.403C99.103,22.716,76.983,0.598,49.701,0.598z M14.058,28.206h34.354v12.883H14.058V28.206z
	 M14.058,43.665h14.386v12.882H14.058V43.665z M48.412,71.793H14.058V58.91h34.354V71.793z M31.236,56.547V43.665H65.59v12.882
	H31.236z M85.343,71.793H50.989V58.91h34.354V71.793z M85.343,56.547H68.166V43.665h17.177V56.547z M50.989,41.089V28.206h34.354
	v12.883H50.989z"/>
<g>
</g>
<g>
</g>
<g>
</g>
<g>
</g>
<g>
</g>
<g>
</g>
</svg>
