<?xml version="1.0" encoding="utf-8"?>
<!-- Generator: Adobe Illustrator 16.0.0, SVG Export Plug-In . SVG Version: 6.00 Build 0)  -->
<!DOCTYPE svg PUBLIC "-//W3C//DTD SVG 1.1//EN" "http://www.w3.org/Graphics/SVG/1.1/DTD/svg11.dtd">
<svg version="1.1" id="Layer_1" xmlns="http://www.w3.org/2000/svg" xmlns:xlink="http://www.w3.org/1999/xlink" x="0px" y="0px"
	 width="200px" height="100px" viewBox="0 0 200 100" enable-background="new 0 0 200 100" xml:space="preserve">
<g>
	<g>
		<path fill="#E6E7E8" d="M21.54,66.867c0-0.257,0.184-0.478,0.478-0.478c0.22,0,0.441,0.221,0.441,0.478V85.93l11.826-11.827
			c0.184-0.184,0.441-0.184,0.661,0c0.184,0.184,0.184,0.478,0,0.661L27.49,82.22l7.456,9.072c0.184,0.257,0.11,0.514-0.073,0.697
			c-0.074,0.073-0.184,0.11-0.257,0.11c-0.147,0-0.294-0.037-0.367-0.184l-7.456-8.998l-4.224,4.224
			c-0.037,0.036-0.073,0.073-0.11,0.073v4.407c0,0.257-0.221,0.478-0.441,0.478c-0.294,0-0.478-0.221-0.478-0.478V66.867z"/>
		<path fill="#E6E7E8" d="M48.827,74.103c4.701,0,8.521,4.04,8.521,8.999c0,4.921-3.82,8.998-8.521,8.998s-8.484-4.077-8.484-8.998
			C40.342,78.143,44.125,74.103,48.827,74.103z M48.827,91.182c4.15,0,7.603-3.637,7.603-8.08c0-4.481-3.452-8.08-7.603-8.08
			s-7.566,3.599-7.566,8.08C41.261,87.545,44.676,91.182,48.827,91.182z"/>
		<path fill="#E6E7E8" d="M77.729,81.375c0-3.562-2.865-6.354-6.317-6.354c-3.453,0-6.354,2.791-6.354,6.354v10.247
			c0,0.11-0.037,0.221-0.11,0.294c-0.073,0.11-0.184,0.184-0.331,0.184h-0.073H64.47c-0.037-0.037-0.073-0.037-0.11-0.073
			c-0.037,0-0.074-0.037-0.11-0.073c-0.037-0.037-0.037-0.037-0.037-0.074c-0.037-0.036-0.074-0.109-0.074-0.184v-0.073V81.375
			v-0.294v-6.537c0-0.294,0.221-0.441,0.478-0.441c0.257,0,0.441,0.147,0.441,0.441v3.306c1.249-2.241,3.636-3.747,6.354-3.747
			c3.966,0,7.235,3.232,7.235,7.272v10.247c0,0.257-0.221,0.478-0.478,0.478c-0.294,0-0.441-0.221-0.441-0.478V81.375z"/>
		<path fill="#E6E7E8" d="M85.255,88.941c0.147-0.258,0.441-0.294,0.661-0.074c1.322,1.065,3.562,2.314,5.95,2.314
			c1.58,0,2.938-0.478,3.967-1.212c1.028-0.735,1.616-1.727,1.616-2.792c-0.037-1.028-0.514-1.836-1.506-2.534
			c-1.028-0.661-2.424-1.139-4.15-1.469h-0.11c-1.653-0.257-3.122-0.698-4.187-1.469c-1.065-0.698-1.799-1.764-1.799-3.049
			c0.037-2.607,2.828-4.555,6.133-4.555c2.277,0,4.04,1.139,5.436,2.094c0.22,0.147,0.257,0.44,0.146,0.624
			c-0.146,0.221-0.44,0.294-0.661,0.147c-1.396-0.918-2.938-1.946-4.922-1.946c-1.506,0-2.828,0.44-3.746,1.139
			c-0.918,0.697-1.433,1.542-1.433,2.497s0.441,1.652,1.359,2.277c0.918,0.624,2.277,1.064,3.894,1.396h0.037
			c1.8,0.367,3.342,0.771,4.518,1.543c1.139,0.771,1.91,1.909,1.91,3.305c-0.037,2.828-3.012,4.922-6.501,4.922
			c-2.718,0-5.105-1.396-6.538-2.571C85.108,89.382,85.108,89.125,85.255,88.941z"/>
		<path fill="#E6E7E8" d="M111.293,74.58c0,0.258-0.221,0.441-0.479,0.441h-2.938v14.323c0,1.028,0.845,1.873,1.873,1.873
			c0.258,0,0.478,0.184,0.478,0.441c0,0.257-0.22,0.478-0.478,0.478c-1.543,0-2.791-1.249-2.791-2.792V75.021h-3.086
			c-0.257,0-0.477-0.184-0.477-0.441c0-0.257,0.22-0.478,0.477-0.478h3.086v-7.198c0-0.257,0.184-0.478,0.44-0.478
			s0.478,0.221,0.478,0.478v7.198h2.938C111.072,74.103,111.293,74.323,111.293,74.58z"/>
		<path fill="#E6E7E8" d="M117.425,83.212c-0.037-0.074-0.037-0.11,0-0.221V74.58c0-0.257,0.22-0.478,0.44-0.478
			c0.294,0,0.44,0.221,0.44,0.478v6.097c0.294-0.66,0.661-1.396,1.139-2.13c1.396-2.094,3.71-4.444,7.162-4.444
			c0.294,0,0.478,0.221,0.478,0.478c0,0.258-0.184,0.478-0.478,0.478c-2.277,0-4.003,1.103-5.215,2.461
			c-1.286,1.469-2.167,3.306-2.645,4.444c-0.294,0.808-0.441,1.249-0.441,1.249v8.41c0,0.294-0.146,0.478-0.44,0.478
			c-0.221,0-0.44-0.184-0.44-0.478V83.212z"/>
		<path fill="#E6E7E8" d="M133.143,74.58c0-0.257,0.184-0.478,0.477-0.478c0.221,0,0.441,0.221,0.441,0.478v10.247
			c0,3.526,2.828,6.354,6.28,6.354c3.489,0,6.317-2.828,6.317-6.354V74.58c0-0.257,0.257-0.478,0.478-0.478
			c0.257,0,0.478,0.221,0.478,0.478v10.247c0,4.04-3.27,7.272-7.272,7.272c-3.967,0-7.198-3.232-7.198-7.272V74.58z"/>
		<path fill="#E6E7E8" d="M163.99,74.103c2.13,0,4.15,0.698,5.729,1.947c0.184,0.184,0.184,0.478,0.037,0.697
			c-0.147,0.184-0.404,0.184-0.625,0.037c-1.433-1.102-3.231-1.763-5.142-1.763c-4.664,0-8.337,3.636-8.337,8.08
			c0,4.443,3.673,8.08,8.337,8.08c1.91,0,3.709-0.698,5.142-1.8c0.184-0.11,0.478-0.073,0.625,0.11
			c0.146,0.22,0.146,0.478-0.037,0.661c-1.579,1.212-3.6,1.946-5.729,1.946c-5.105-0.037-9.256-4.077-9.256-8.998
			C154.734,78.143,158.885,74.103,163.99,74.103z"/>
		<path fill="#E6E7E8" d="M183.014,74.58c0,0.258-0.221,0.441-0.478,0.441h-2.938v14.323c0,1.028,0.845,1.873,1.873,1.873
			c0.257,0,0.478,0.184,0.478,0.441c0,0.257-0.221,0.478-0.478,0.478c-1.543,0-2.791-1.249-2.791-2.792V75.021h-3.085
			c-0.258,0-0.478-0.184-0.478-0.441c0-0.257,0.22-0.478,0.478-0.478h3.085v-7.198c0-0.257,0.184-0.478,0.44-0.478
			s0.478,0.221,0.478,0.478v7.198h2.938C182.793,74.103,183.014,74.323,183.014,74.58z"/>
	</g>
	<path fill="#72C9C0" d="M103.193,1.544c-14.161,0-25.641,11.479-25.641,25.64s11.48,25.64,25.641,25.64
		c14.16,0,25.64-11.479,25.64-25.64S117.354,1.544,103.193,1.544z M84.694,15.873h17.83v6.687h-17.83V15.873z M84.694,23.896h7.466
		v6.687h-7.466V23.896z M102.524,38.495h-17.83v-6.686h17.83V38.495z M93.61,30.583v-6.687h17.83v6.687H93.61z M121.691,38.495
		h-17.83v-6.686h17.83V38.495z M121.691,30.583h-8.914v-6.687h8.914V30.583z M103.861,22.56v-6.687h17.83v6.687H103.861z"/>
</g>
<g>
</g>
<g>
</g>
<g>
</g>
<g>
</g>
<g>
</g>
<g>
</g>
</svg>
