<?xml version="1.0" standalone="no"?>
<!DOCTYPE svg PUBLIC "-//W3C//DTD SVG 1.1//EN" "http://www.w3.org/Graphics/SVG/1.1/DTD/svg11.dtd" >
<svg xmlns="http://www.w3.org/2000/svg">
<metadata>
This is a custom SVG webfont generated by Font Squirrel.
Copyright   : Copyright c 2011 by Hannes von Doehren All rights reserved
Designer    : Hannes von Doehren
Foundry     : Hannes von Doehren
Foundry URL : httpwwwhvdfontscom
</metadata>
<defs>
<font id="PlutoThin" horiz-adv-x="1228" >
<font-face units-per-em="2048" ascent="1536" descent="-512" />
<missing-glyph horiz-adv-x="512" />
<glyph unicode=" "  horiz-adv-x="512" />
<glyph unicode="&#x09;" horiz-adv-x="512" />
<glyph unicode="&#xa0;" horiz-adv-x="512" />
<glyph unicode="!" horiz-adv-x="522" d="M195 55.5q0 75.5 65 75.5q70 0 70 -75.5t-70 -75.5q-65 0 -65 75.5zM240 453v938h43v-938h-43z" />
<glyph unicode="&#x22;" horiz-adv-x="796" d="M178 920v473h41v-473h-41zM578 920v473h40v-473h-40z" />
<glyph unicode="#" horiz-adv-x="1419" d="M94 340v43h221l162 645h-196v43h206l80 322h45v-7l-77 -315h526l80 322h45v-7l-78 -315h219v-43h-229l-162 -645h205v-43h-215l-84 -340h-45v6l82 334h-527l-84 -340h-45v6l82 334h-211zM362 383h527l162 645h-527z" />
<glyph unicode="$" d="M106 1042q0 145 126 252t362 115v166h41v-164q127 0 253 -32.5t208 -80.5l-19 -41q-70 43 -197.5 78t-244.5 35v-645l106 -25q188 -43 283.5 -117.5t95.5 -211.5q0 -172 -133 -275.5t-352 -113.5v-246h-41v244h-8q-131 0 -255 37.5t-202 84.5l14 39q76 -45 197 -83 t246 -38h8v674l-180 41q-308 69 -308 307zM147 1042q0 -207 273 -268l174 -41v635q-215 -8 -331 -103.5t-116 -222.5zM635 20q197 10 320.5 104.5t123.5 246.5q0 113 -86 183.5t-262 109.5l-96 20v-664z" />
<glyph unicode="%" horiz-adv-x="1679" d="M100 1071q0 147 96.5 243.5t243.5 96.5q150 0 245 -96t95 -244q0 -145 -95 -240.5t-245 -95.5q-147 0 -243.5 95.5t-96.5 240.5zM141 1071q0 -129 84 -213t215 -84q133 0 217 84t84 213q0 131 -84 216t-217 85q-131 0 -215 -86t-84 -215zM424 0v6l754 1387h45v-7 l-754 -1386h-45zM901 315q0 147 96.5 243.5t243.5 96.5q150 0 245 -96t95 -244q0 -145 -95 -240t-245 -95q-147 0 -243.5 95t-96.5 240zM942 315q0 -129 84 -213t215 -84q133 0 217 84t84 213q0 131 -84 216t-217 85q-131 0 -215 -86t-84 -215z" />
<glyph unicode="&#x26;" horiz-adv-x="1419" d="M137 334q0 78 34 142.5t95.5 111.5t115.5 75.5t124 57.5l-17 16q-82 78 -113.5 111t-74.5 106.5t-43 141.5q0 147 101.5 232t273.5 85q158 0 267.5 -90t109.5 -221q0 -225 -248 -326l-180 -74l458 -442q160 201 209 502l45 -8q-61 -322 -223 -525l232 -221v-8h-52 l-204 197q-188 -215 -455 -215q-209 0 -332 94t-123 258zM178 332q0 -141 110.5 -225t303.5 -84q244 0 422 204l-473 459q-59 -25 -99.5 -43t-94.5 -52t-87 -68t-57.5 -84t-24.5 -107zM299 1098q0 -47 19.5 -93.5t66.5 -100.5t67.5 -74.5t75.5 -73.5l21 -21l194 76 q225 88 226 291q0 113 -99.5 191.5t-236.5 78.5q-160 0 -247 -74.5t-87 -199.5z" />
<glyph unicode="'" horiz-adv-x="397" d="M178 920v473h41v-473h-41z" />
<glyph unicode="(" horiz-adv-x="528" d="M129 534.5q0 176.5 32 339t81 279.5t91 189.5t83 121.5l35 -26q-41 -51 -81 -122t-89.5 -183.5t-79 -270t-29.5 -327.5q0 -221 55.5 -424t110.5 -304.5t113 -175.5l-35 -26q-41 49 -83 121.5t-91 189.5t-81 279.5t-32 339z" />
<glyph unicode=")" horiz-adv-x="528" d="M78 -369q57 74 112.5 175.5t110.5 304t55 424.5q0 170 -29.5 327.5t-78.5 270t-89 183t-81 122.5l35 26q41 -49 83 -121.5t91 -189.5t80.5 -279.5t31.5 -339t-31.5 -339t-80.5 -279.5t-91 -189.5t-83 -121.5z" />
<glyph unicode="*" horiz-adv-x="1062" d="M156 1159q0 16 16 24.5t45 0.5q172 -70 303 -144q-18 203 -18 353q0 47 28 47q31 0 31 -47q0 -199 -26 -353q115 59 305 136q29 10 46 0.5t17 -27.5q0 -25 -33 -37q-156 -55 -329 -88q37 -37 124 -133t111 -123q20 -25 15 -45.5t-27 -20.5q-20 0 -39 25 q-133 172 -199 285q-20 -37 -53 -90.5t-72 -113.5t-51 -81q-16 -27 -45 -27q-18 0 -23.5 19.5t11.5 44.5q100 139 221 260q-90 18 -321 96q-37 12 -37 39z" />
<glyph unicode="+" d="M162 598v41h432v432h41v-432h432v-41h-432v-432h-41v432h-432z" />
<glyph unicode="," horiz-adv-x="483" d="M162 -330l102 303q-45 0 -69.5 20.5t-24.5 49.5q0 80 72 80q35 0 54 -23.5t19 -56.5q0 -66 -46 -201t-74 -186z" />
<glyph unicode="-" horiz-adv-x="1064" d="M172 598v43h721v-43h-721z" />
<glyph unicode="." horiz-adv-x="479" d="M172 55.5q0 75.5 66 75.5q70 0 69.5 -75.5t-69.5 -75.5q-66 0 -66 75.5z" />
<glyph unicode="/" horiz-adv-x="978" d="M90 0v6l754 1387h45v-7l-754 -1386h-45z" />
<glyph unicode="0" horiz-adv-x="1478" d="M166 694q0 328 140 523.5t431 195.5q295 0 435.5 -195.5t140.5 -523.5q0 -326 -140.5 -520t-435.5 -194q-291 0 -431 194t-140 520zM207 694q0 -307 129 -490.5t401 -183.5q186 0 309 91.5t174.5 238t51.5 344.5q0 309 -129 493.5t-406 184.5q-272 0 -401 -184.5 t-129 -493.5z" />
<glyph unicode="1" horiz-adv-x="935" d="M53 1141l588 252h41v-1393h-41v1346l-573 -242z" />
<glyph unicode="2" horiz-adv-x="1284" d="M143 956q4 205 133.5 331t362.5 126q229 0 348 -121t119 -311q0 -143 -72.5 -263t-228.5 -237l-582 -440h932v-41h-999v41l622 473q147 113 217 222.5t70 244.5q0 172 -108.5 281.5t-317.5 109.5q-215 0 -333 -115.5t-122 -300.5h-41z" />
<glyph unicode="3" horiz-adv-x="1329" d="M160 82l18 39q207 -100 449 -101q213 0 357 95.5t144 259.5q0 147 -109.5 237t-307.5 90h-396v41h396q172 0 270 94.5t98 221.5q0 147 -127 230t-325 83q-236 0 -437 -110l-20 36q215 115 457 115q221 0 357 -94t136 -260q0 -125 -83 -221.5t-216 -110.5 q162 -23 255 -114t93 -238q0 -182 -152.5 -288.5t-389.5 -106.5q-227 0 -467 102z" />
<glyph unicode="4" horiz-adv-x="1435" d="M63 336v41l898 1016h51v-1016h346v-41h-346v-336h-41v336h-908zM117 377h854v971z" />
<glyph unicode="5" horiz-adv-x="1318" d="M129 86l21 39q203 -104 460 -105q137 0 250 37t193 133.5t80 239.5q0 342 -519 342h-395l-4 6l51 615h862v-41h-825l-45 -539h356q254 0 407 -92t153 -289q0 -227 -166 -339.5t-398 -112.5q-256 0 -481 106z" />
<glyph unicode="6" horiz-adv-x="1437" d="M162 698q0 322 163.5 518.5t450.5 196.5q150 0 270.5 -45t190.5 -102l-31 -35q-63 57 -175.5 99t-254.5 42q-264 0 -418.5 -185.5t-154.5 -488.5q0 -61 6 -116q29 51 71 101t110.5 110.5t170 98.5t215.5 38q236 0 375 -124t139 -343q0 -211 -147.5 -347t-370.5 -136 q-285 0 -447.5 195t-162.5 523zM217 522q43 -233 187.5 -367.5t367.5 -134.5q203 0 340 126t137 317q0 203 -131 314.5t-342 111.5q-121 0 -226.5 -45t-174 -116t-103.5 -118t-55 -88z" />
<glyph unicode="7" horiz-adv-x="1052" d="M45 1352v41h967v-41l-666 -1352h-49v6l666 1346h-918z" />
<glyph unicode="8" horiz-adv-x="1404" d="M160 375q0 147 105.5 238.5t283.5 113.5q-150 14 -245 111.5t-95 220.5q0 166 136 260t357.5 94t357.5 -94t136 -260q0 -123 -95 -220.5t-245 -111.5q178 -23 283.5 -114t105.5 -238q0 -182 -152.5 -288.5t-390 -106.5t-390 106.5t-152.5 288.5zM201 375 q0 -162 143 -258.5t358.5 -96.5t358.5 96.5t143 258.5q0 152 -121.5 237.5t-375.5 85.5t-380 -86.5t-126 -236.5zM250 1059q0 -129 112.5 -220t344.5 -91q225 0 336.5 91t111.5 220q0 152 -125 232.5t-327.5 80.5t-327.5 -80.5t-125 -232.5z" />
<glyph unicode="9" horiz-adv-x="1437" d="M147 930q0 211 147.5 347t371.5 136q285 0 447.5 -195.5t162.5 -523.5q0 -322 -164 -518t-450 -196q-150 0 -271 45t-190 102l30 35q63 -57 176 -99.5t255 -42.5q264 0 418.5 185.5t154.5 488.5q0 59 -6 115q-31 -51 -72 -100.5t-110.5 -110.5t-170 -98t-214.5 -37 q-236 0 -375.5 124t-139.5 343zM188 930q0 -203 131.5 -314.5t342.5 -111.5q98 0 188 32.5t148.5 75.5t109.5 100.5t72.5 92.5t38.5 65q-41 231 -186.5 366.5t-366.5 135.5q-203 0 -340.5 -126t-137.5 -316z" />
<glyph unicode=":" horiz-adv-x="479" d="M172 55.5q0 75.5 66 75.5q70 0 69.5 -75.5t-69.5 -75.5q-66 0 -66 75.5zM172 1024q0 76 66 76q70 0 69.5 -76t-69.5 -76q-66 0 -66 76z" />
<glyph unicode=";" horiz-adv-x="499" d="M172 -330l102 303q-45 0 -69.5 20.5t-24.5 49.5q0 80 72 80q35 0 54.5 -23.5t19.5 -56.5q0 -66 -46.5 -201t-74.5 -186zM182 1024q0 76 66 76q70 0 69.5 -76t-69.5 -76q-66 0 -66 76z" />
<glyph unicode="&#x3c;" d="M162 600v41l897 446h6v-45l-860 -421l860 -422v-45h-6z" />
<glyph unicode="=" d="M162 307v41h905v-41h-905zM162 891v41h905v-41h-905z" />
<glyph unicode="&#x3e;" d="M162 154v45l860 422l-860 421v45h6l897 -446v-41l-897 -446h-6z" />
<glyph unicode="?" horiz-adv-x="978" d="M104 1206q104 207 367 207q158 0 262.5 -95t104.5 -247q0 -86 -33 -154.5t-63.5 -97t-96.5 -82.5l-129 -100q-51 -39 -67.5 -63.5t-16.5 -63.5q0 -27 8 -57h-43q-6 27 -6 57q0 88 105 166l125 96q57 43 89.5 76t59.5 91t27 132q0 137 -93.5 219t-232.5 82 q-233 0 -328 -190zM356 55.5q0 75.5 66 75.5q70 0 70 -75.5t-70 -75.5q-66 0 -66 75.5z" />
<glyph unicode="@" horiz-adv-x="2078" d="M127 539q0 401 266 667.5t663.5 266.5t655.5 -233.5t258 -577.5q0 -299 -127 -469t-289 -170q-86 0 -123.5 36.5t-41.5 110.5q-61 -63 -154.5 -105t-198.5 -42q-217 0 -349 138t-132 357q0 221 132 362.5t349 141.5q211 0 350 -143v127h41v-807q0 -68 29 -102t98 -34 q143 0 259 159t116 440q0 330 -245.5 550t-626.5 220q-383 0 -636 -254t-253 -639q0 -383 254 -639t635 -256q217 0 407 90l19 -37q-195 -94 -426 -94q-397 0 -663.5 268.5t-266.5 667.5zM596 518q0 -201 121 -328t321 -127q106 0 198.5 46.5t149.5 109.5v602 q-57 68 -149 114t-199 46q-201 0 -321.5 -129t-120.5 -334z" />
<glyph unicode="A" horiz-adv-x="1380" d="M53 0l627 1393h41l586 -1393h-41l-160 377h-842l-170 -377h-41zM283 418h807l-392 928z" />
<glyph unicode="B" horiz-adv-x="1384" d="M248 0v1393h434q211 0 329.5 -88t118.5 -265q0 -123 -73.5 -203.5t-200.5 -113.5q385 -47 385 -367q0 -166 -117.5 -261t-347.5 -95h-528zM289 41h489q203 0 312.5 84t109.5 231q0 170 -127 255t-352 85h-432v-655zM289 737h375q190 0 308 79t118 224q0 158 -108 235 t-300 77h-393v-615z" />
<glyph unicode="C" horiz-adv-x="1562" d="M152 694q0 334 192.5 526.5t505.5 192.5q264 0 413.5 -140t155.5 -386l-39 -6q-6 231 -144 361t-386 130q-297 0 -477 -181t-180 -497q0 -313 180 -493.5t477 -180.5q152 0 299 63.5t242 154.5l30 -33q-100 -96 -253.5 -160.5t-317.5 -64.5q-313 0 -505.5 191t-192.5 523 z" />
<glyph unicode="D" horiz-adv-x="1607" d="M248 0v1393h489q319 -2 519 -185.5t200 -513.5q0 -328 -199.5 -511t-519.5 -183h-489zM289 41h448q303 0 490.5 171t187.5 482q0 313 -187.5 484.5t-490.5 173.5h-448v-1311z" />
<glyph unicode="E" horiz-adv-x="1439" d="M248 0v1393h1028v-41h-987v-598h837v-41h-837v-672h987v-41h-1028z" />
<glyph unicode="F" horiz-adv-x="1310" d="M248 0v1393h987v-41h-946v-674h835v-41h-835v-637h-41z" />
<glyph unicode="G" horiz-adv-x="1628" d="M150 694q0 330 210.5 524.5t530.5 194.5q293 0 516 -201l-29 -32q-213 193 -487 192q-299 0 -500 -183t-201 -495q0 -307 201 -490.5t500 -183.5q147 0 290.5 44.5t237.5 111.5v463h-588v41h629v-528q-100 -74 -256.5 -123t-312.5 -49q-319 0 -530 193t-211 521z" />
<glyph unicode="H" horiz-adv-x="1712" d="M248 0v1393h41v-674h1134v674h41v-1393h-41v678h-1134v-678h-41z" />
<glyph unicode="I" horiz-adv-x="536" d="M248 0v1393h41v-1393h-41z" />
<glyph unicode="J" horiz-adv-x="1341" d="M76 496l39 6q16 -229 135 -357.5t342 -128.5q227 0 354 135.5t127 362.5v879h41v-879q0 -240 -140 -389.5t-382 -149.5q-238 0 -369 139.5t-147 381.5z" />
<glyph unicode="K" horiz-adv-x="1544" d="M248 0v1393h41v-674h426l514 674h47v-7l-524 -688q35 -33 81 -118.5t92 -177t102 -179.5t132 -145.5t160 -57.5q90 0 197 54l12 -41q-106 -53 -209 -53q-82 0 -155.5 44t-125 111.5t-100.5 152.5t-83 159.5t-72 140t-68 90.5h-426v-678h-41z" />
<glyph unicode="L" horiz-adv-x="1196" d="M248 0v1393h41v-1352h852v-41h-893z" />
<glyph unicode="M" horiz-adv-x="1929" d="M248 0v1393h41l676 -826l675 826h41v-1393h-41v1323l-665 -809h-21l-665 809v-1323h-41z" />
<glyph unicode="N" horiz-adv-x="1703" d="M248 0v1393h41l1126 -1332v1332h41v-1393h-41l-1126 1325v-1325h-41z" />
<glyph unicode="O" horiz-adv-x="1728" d="M147 694q0 309 205 514t510 205q309 0 514 -204.5t205 -514.5q0 -305 -205 -509.5t-514 -204.5q-305 0 -510 204.5t-205 509.5zM188 694q0 -291 191.5 -482.5t482.5 -191.5q293 0 485.5 191.5t192.5 482.5q0 293 -192.5 485.5t-485.5 192.5q-291 0 -482.5 -192.5 t-191.5 -485.5z" />
<glyph unicode="P" horiz-adv-x="1382" d="M248 0v1393h553q203 0 337 -122t134 -353q0 -213 -136.5 -340t-334.5 -127h-512v-451h-41zM289 492h510q184 0 308 114.5t124 311.5q0 213 -122 323.5t-310 110.5h-510v-860z" />
<glyph unicode="Q" horiz-adv-x="1728" d="M147 694q0 309 205 514t510 205q309 0 514 -204.5t205 -514.5q0 -283 -179 -482.5t-456 -227.5q23 -16 94.5 -81t125 -107t148.5 -80t193 -38q137 0 244 37l12 -45q-113 -39 -256 -39q-123 0 -238.5 53.5t-184 117t-131 118.5t-91.5 60q-305 0 -510 204.5t-205 509.5z M188 694q0 -291 191.5 -482.5t482.5 -191.5q293 0 485.5 191.5t192.5 482.5q0 293 -192.5 485.5t-485.5 192.5q-291 0 -482.5 -192.5t-191.5 -485.5z" />
<glyph unicode="R" horiz-adv-x="1546" d="M248 0v1393h590q188 0 318 -112t130 -318q0 -193 -133 -308.5t-315 -115.5h-99q37 -35 115 -133.5t143.5 -176t158.5 -143.5t177 -66q90 0 197 54l12 -41q-106 -53 -209 -53q-86 0 -172 49t-155.5 124.5t-130 152.5t-115.5 144.5t-90 88.5h-381v-539h-41zM289 580h549 q168 0 287.5 103t119.5 280q0 190 -116.5 289.5t-290.5 99.5h-549v-772z" />
<glyph unicode="S" horiz-adv-x="1304" d="M145 1042q0 152 137.5 260.5t391.5 108.5q127 0 253 -32.5t208 -80.5l-19 -41q-70 43 -197.5 78t-244.5 35q-236 0 -362 -96t-126 -232q0 -207 273 -268l321 -74q188 -43 283.5 -117.5t95.5 -211.5q0 -180 -147.5 -285.5t-386.5 -105.5q-131 0 -255 37.5t-202 84.5l14 39 q76 -45 197 -83t246 -38q217 0 355 95.5t138 255.5q0 113 -86 183.5t-262 109.5l-317 71q-308 69 -308 307z" />
<glyph unicode="T" horiz-adv-x="1269" d="M41 1352v41h1188v-41h-553v-1352h-41v1352h-594z" />
<glyph unicode="U" horiz-adv-x="1597" d="M227 549v844h41v-844q0 -246 131 -389.5t398 -143.5q264 0 398 150.5t134 384.5v842h41v-844q0 -246 -147.5 -410t-425.5 -164q-281 0 -425.5 157t-144.5 417z" />
<glyph unicode="V" horiz-adv-x="1376" d="M72 1393h41l565 -1346l606 1346h41l-627 -1393h-41z" />
<glyph unicode="W" horiz-adv-x="2160" d="M72 1393h41l565 -1346l385 854l-207 492h41l565 -1346l606 1346h41l-626 -1393h-41l-361 854l-383 -854h-41z" />
<glyph unicode="X" horiz-adv-x="1376" d="M76 0v6l581 690l-581 690v7h47l565 -664l565 664h47v-7l-583 -690l583 -690v-6h-47l-565 664l-565 -664h-47z" />
<glyph unicode="Y" horiz-adv-x="1339" d="M43 1386v7h45l582 -742l581 742h45v-7l-606 -772v-614h-41v612z" />
<glyph unicode="Z" horiz-adv-x="1208" d="M111 0v41l936 1311h-936v41h987v-41l-936 -1311h936v-41h-987z" />
<glyph unicode="[" horiz-adv-x="614" d="M211 -385v1839h354v-41h-313v-1755h313v-43h-354z" />
<glyph unicode="\" horiz-adv-x="978" d="M90 1386v7h45l754 -1387v-6h-45z" />
<glyph unicode="]" horiz-adv-x="614" d="M49 -342h313v1755h-313v41h354v-1839h-354v43z" />
<glyph unicode="^" d="M221 860v6l365 527h41l374 -527v-6h-45l-350 496l-340 -496h-45z" />
<glyph unicode="_" horiz-adv-x="1617" d="M297 -100h1024v-43h-1024v43z" />
<glyph unicode="`" d="M518 1518h51l170 -261h-51z" />
<glyph unicode="a" horiz-adv-x="1378" d="M127 530q0 246 147.5 403t389.5 157q223 0 391 -168v149h41v-899q0 -152 114 -152q51 0 127 52l19 -35q-72 -57 -146 -57q-143 0 -155 163q-70 -70 -173.5 -116.5t-217.5 -46.5q-242 0 -389.5 153t-147.5 397zM168 530q0 -225 136 -367.5t360 -142.5q119 0 223 51.5 t168 125.5v673q-63 74 -167 126.5t-224 52.5q-223 0 -359.5 -146t-136.5 -373z" />
<glyph unicode="b" horiz-adv-x="1308" d="M211 0v1454h41v-530q166 166 393 166q242 0 389.5 -154t147.5 -399.5t-147.5 -401t-389.5 -155.5q-227 0 -393 161v-141h-41zM252 199q61 -74 166.5 -126.5t226.5 -52.5q223 0 359.5 144.5t136.5 372.5q0 225 -136.5 368.5t-359.5 143.5q-119 0 -224.5 -53.5 t-168.5 -127.5v-669z" />
<glyph unicode="c" horiz-adv-x="1253" d="M127 532q0 250 151.5 409t405.5 159q207 0 323.5 -107.5t125.5 -287.5l-41 -11q-8 168 -113 266.5t-295 98.5q-238 0 -377 -147.5t-139 -379.5q0 -238 128 -379t398 -141q207 0 408 148l22 -39q-190 -150 -430 -150q-289 0 -428 152.5t-139 408.5z" />
<glyph unicode="d" horiz-adv-x="1380" d="M127 537q0 244 147.5 398.5t389.5 154.5q227 0 393 -166v530h41v-1286q0 -76 26.5 -112t87.5 -36q53 0 125 52l21 -35q-72 -57 -148 -57q-147 0 -153 165q-166 -166 -393 -165q-240 0 -388.5 155.5t-148.5 401.5zM168 537q0 -227 137 -372t361 -145q121 0 224 52.5 t167 126.5v669q-66 74 -169.5 127.5t-221.5 53.5q-223 0 -360.5 -143.5t-137.5 -368.5z" />
<glyph unicode="e" horiz-adv-x="1273" d="M125 532q0 240 151.5 404t401.5 164q231 0 349 -127t118 -320q0 -82 -17 -141h-964q4 -221 136 -361.5t394 -140.5q219 0 404 144l26 -37q-182 -145 -430 -146q-287 0 -428 157.5t-141 403.5zM164 553h932q8 61 8 100q0 174 -107.5 290t-318.5 116q-229 0 -369.5 -146.5 t-144.5 -359.5z" />
<glyph unicode="f" horiz-adv-x="899" d="M90 956v41h244v127q0 160 75.5 255.5t235.5 95.5q172 0 268 -136l-28 -26q-92 121 -240 121q-270 0 -270 -310v-127h456v-41h-456v-956h-41v956h-244z" />
<glyph unicode="g" horiz-adv-x="1308" d="M129 573q0 219 148.5 368t388.5 149q225 0 391 -166v147h41v-1001q0 -219 -129 -347.5t-318 -128.5q-37 0 -72.5 4.5t-63.5 9.5t-58.5 15t-49 17.5t-44 20.5t-36 19.5t-32 19.5t-25.5 15l17 43q182 -123 364 -123q170 0 288 117t118 316v157q-168 -164 -391 -164 q-240 0 -388.5 148.5t-148.5 363.5zM170 573q0 -199 137 -335t359 -136q119 0 223 52.5t168 124.5v589q-63 74 -168 127.5t-223 53.5q-221 0 -358.5 -137.5t-137.5 -338.5z" />
<glyph unicode="h" horiz-adv-x="1363" d="M211 0v1454h41v-625q55 125 164.5 193t259.5 68q201 0 308.5 -131.5t107.5 -342.5v-444q0 -152 114 -152q51 0 127 52l19 -35q-72 -57 -146 -57q-156 0 -155 192v444q0 190 -95.5 311.5t-279.5 121.5q-164 0 -277.5 -91.5t-146.5 -236.5v-721h-41z" />
<glyph unicode="i" horiz-adv-x="548" d="M193 1378.5q0 53.5 45 53.5q41 0 41 -53.5t-41 -53.5q-45 0 -45 53.5zM215 172v899h41v-899q0 -152 115 -152q53 0 125 52l20 -35q-72 -57 -147 -57q-154 -1 -154 192z" />
<glyph unicode="j" horiz-adv-x="462" d="M-37 -369q121 61 184.5 148.5t63.5 228.5v1063h41v-1065q0 -291 -272 -409zM190 1378.5q0 53.5 43 53.5q41 0 41 -53.5t-41 -53.5q-43 0 -43 53.5z" />
<glyph unicode="k" horiz-adv-x="1185" d="M211 0v1454h41v-924q150 0 265.5 24t222 80t181 165.5t113.5 271.5h41q-92 -389 -399 -514l428 -551v-6h-55l-412 543q-158 -53 -385 -54v-489h-41z" />
<glyph unicode="l" horiz-adv-x="581" d="M209 190v1264h41v-1261q0 -172 153 -173q70 0 146 52l20 -35q-72 -57 -166 -57q-88 0 -141 52t-53 158z" />
<glyph unicode="m" horiz-adv-x="2125" d="M211 0v1071h41v-256q117 274 405 275q301 0 381 -299q49 135 157 217t261 82q199 0 298 -129.5t99 -344.5v-444q0 -152 113 -152q51 0 127 52l21 -35q-72 -57 -148 -57q-154 0 -154 192v444q0 195 -88 314t-270 119q-160 0 -264.5 -99.5t-136.5 -251.5v-698h-41v616 q0 197 -87 315t-270 118q-160 0 -264 -98.5t-139 -250.5v-700h-41z" />
<glyph unicode="n" horiz-adv-x="1363" d="M211 0v1071h41v-242q55 125 164.5 193t259.5 68q201 0 308.5 -131.5t107.5 -342.5v-444q0 -152 114 -152q51 0 127 52l19 -35q-72 -57 -146 -57q-156 0 -155 192v444q0 190 -95.5 311.5t-279.5 121.5q-164 0 -277.5 -91.5t-146.5 -236.5v-721h-41z" />
<glyph unicode="o" horiz-adv-x="1380" d="M125 532q0 246 157.5 407t405.5 161q250 0 408.5 -161t158.5 -407q0 -244 -158.5 -402.5t-408.5 -158.5q-248 0 -405.5 158.5t-157.5 402.5zM166 532q0 -225 146.5 -372.5t375.5 -147.5q231 0 378.5 147.5t147.5 372.5q0 227 -147 377t-379 150q-229 0 -375.5 -150 t-146.5 -377z" />
<glyph unicode="p" horiz-adv-x="1380" d="M23 1036q72 57 145 58q145 0 156 -170q166 166 391 166q242 0 390 -156t148 -402q0 -244 -148.5 -398t-389.5 -154q-229 0 -391 161v-526h-41v1286q0 78 -27 115t-88 37q-57 0 -127 -52zM324 197q61 -72 165.5 -124.5t225.5 -52.5q223 0 360 143.5t137 368.5 q0 227 -137 372t-360 145q-121 0 -224.5 -53.5t-166.5 -129.5v-669z" />
<glyph unicode="q" horiz-adv-x="1306" d="M127 532q0 246 147.5 402t389.5 156q223 0 391 -168v149h41v-1456h-41v526q-166 -162 -391 -161q-242 0 -389.5 154t-147.5 398zM168 532.5q0 -227.5 136 -370t360 -142.5q119 0 223 52.5t168 124.5v669q-63 76 -167 129.5t-224 53.5q-223 0 -359.5 -144.5t-136.5 -372z " />
<glyph unicode="r" horiz-adv-x="882" d="M25 1032q68 57 145 58q156 0 156 -191v-94q104 285 315 285q137 0 199 -103l-31 -24q-57 86 -166 86q-66 0 -118 -30t-90 -85t-62.5 -113.5t-46.5 -136.5v-684h-41v897q0 152 -115 152q-55 0 -127 -50z" />
<glyph unicode="s" horiz-adv-x="1056" d="M119 776q0 137 116.5 225.5t313.5 88.5q94 0 199.5 -25t166.5 -55l-12 -41q-160 80 -354 80q-172 0 -280.5 -77t-108.5 -196q0 -90 54 -129t185 -67l256 -56q135 -29 207 -82t72 -153q0 -133 -105.5 -221t-291.5 -88q-213 0 -387 92l14 43q170 -94 373 -95q168 0 262 77 t94 190q0 86 -62.5 129t-183.5 69l-256 56q-143 31 -207.5 80t-64.5 155z" />
<glyph unicode="t" horiz-adv-x="917" d="M53 1030v41h230v272h41v-272h479v-41h-481v-756q0 -123 60 -188.5t175 -65.5q68 0 147.5 26t133.5 65l22 -37q-141 -94 -305 -94q-131 0 -202.5 75.5t-71.5 216.5v758h-228z" />
<glyph unicode="u" horiz-adv-x="1355" d="M193 449v622h40v-620q0 -193 95.5 -312t279.5 -119q162 0 275.5 92.5t148.5 237.5v721h41v-899q0 -152 113 -152q51 0 127 52l20 -35q-72 -57 -147 -57q-154 0 -154 192v72q-55 -121 -165.5 -192.5t-258.5 -71.5q-201 0 -308 129t-107 340z" />
<glyph unicode="v" horiz-adv-x="1406" d="M35 1034q68 57 145 58q156 0 156 -193v-450q0 -203 113.5 -316t304.5 -113q193 0 321.5 132.5t128.5 351.5q0 264 -110 567h41q111 -291 110 -567q0 -233 -142 -378.5t-349 -145.5q-205 0 -332 125.5t-127 343.5v450q0 76 -26.5 114t-88.5 38q-55 0 -127 -50z" />
<glyph unicode="w" horiz-adv-x="2160" d="M35 1036q74 53 147 54q88 0 121 -50.5t33 -140.5v-450q0 -209 97 -319t282 -110q186 0 298.5 120t112.5 309v622h41v-622q0 -193 99.5 -311t279.5 -118q197 0 304.5 138.5t107.5 345.5q0 264 -111 567h41q111 -291 111 -567q0 -238 -125 -381t-328 -143q-168 0 -263 76.5 t-138 240.5q-92 -317 -430 -317q-205 0 -312.5 121.5t-107.5 347.5v452q0 78 -24.5 115t-90.5 37q-57 0 -127 -52z" />
<glyph unicode="x" horiz-adv-x="1110" d="M74 0v6l450 526l-450 533v6h51l430 -504l432 504h49v-6l-452 -533l452 -526v-6h-53l-428 500l-426 -500h-55z" />
<glyph unicode="y" horiz-adv-x="1153" d="M-4 -330l16 41q109 -76 228 -76q113 0 177 62.5t122 196.5l43 104l-535 1073h45l512 -1024l453 1024h45l-522 -1188q-63 -143 -138 -216t-202 -73q-125 0 -244 76z" />
<glyph unicode="z" horiz-adv-x="1040" d="M100 0v41l787 989h-787v41h840v-41l-786 -989h786v-41h-840z" />
<glyph unicode="{" horiz-adv-x="528" d="M111 510v41q188 0 188 158q0 98 -71.5 283.5t-71.5 254.5q0 84 53 145.5t168 61.5h57v-41h-55q-82 0 -132 -46t-50 -120q0 -63 71.5 -252.5t71.5 -285.5q0 -80 -32 -121t-109 -58q80 -16 110.5 -58t30.5 -128q0 -94 -71.5 -281.5t-71.5 -252.5q0 -74 50 -120t132 -46h55 v-41h-57q-115 0 -168 61.5t-53 145.5q0 70 71.5 255t71.5 283q0 162 -188 162z" />
<glyph unicode="|" horiz-adv-x="464" d="M211 -385v1839h41v-1839h-41z" />
<glyph unicode="}" horiz-adv-x="528" d="M94 -356h56q82 0 132 46t50 120q0 66 -72 253t-72 281q0 86 31 128t111 58q-78 16 -110 57.5t-32 121.5q0 96 72 285.5t72 252.5q0 74 -50.5 120t-131.5 46h-56v41h58q115 0 168 -61.5t53 -145.5q0 -70 -72 -255t-72 -283q0 -158 189 -158v-41q-188 0 -189 -162 q0 -98 72 -283.5t72 -254.5q0 -84 -53.5 -145.5t-167.5 -61.5h-58v41z" />
<glyph unicode="~" horiz-adv-x="1034" d="M174 559q6 76 51 129t119 53q57 0 119.5 -49t121 -98t105.5 -49q115 0 135 149l37 -8q-12 -82 -56 -132t-116 -50q-57 0 -117.5 49t-118 98t-110.5 49q-49 0 -88 -37.5t-45 -111.5z" />
<glyph unicode="&#xa1;" horiz-adv-x="489" d="M172 1020q0 80 74 80q70 0 69.5 -80t-69.5 -80q-74 0 -74 80zM223 -322v938h43v-938h-43z" />
<glyph unicode="&#xa2;" d="M111 532q0 250 151.5 409t405.5 159q76 0 145 -17l59 211l39 -10l-59 -213q123 -41 190.5 -136t73.5 -230l-41 -11q-12 262 -235 338l-281 -1012q49 -8 119 -8q207 0 407 148l23 -39q-190 -150 -430 -150q-63 0 -129 11l-70 -254l-39 10l70 250q-203 41 -301 185t-98 359 zM152 532q0 -201 89 -333.5t279 -171.5l283 1015q-66 16 -135 17q-238 0 -377 -148t-139 -379z" />
<glyph unicode="&#xa3;" d="M96 147q0 80 54.5 131.5t142.5 51.5q78 0 121 -31q6 12 1 58t-5 61.5t-9.5 64.5t-13.5 68.5t-15.5 70t-15.5 72.5h-213v41h205q-31 170 -31 283q0 174 98.5 284.5t280.5 110.5q98 0 187.5 -45t126.5 -83t65 -77l-33 -30q-78 96 -135 133q-92 61 -211 61q-164 0 -251 -98 t-87 -256q0 -123 33 -283h537v-41h-529q4 -18 13.5 -63t13.5 -62.5t11 -60.5t9 -59l8 -58q5 -41 3 -56.5t-2 -53.5q37 -20 117.5 -90t156.5 -120.5t135 -50.5q227 0 228 394h38q0 -205 -66.5 -319.5t-199.5 -114.5q-70 0 -148.5 48t-156.5 117.5t-108 85.5 q-33 -252 -201 -251q-74 0 -114 45.5t-40 121.5zM137 147q0 -127 113 -127q133 0 160 232q-53 37 -119 37t-110 -39.5t-44 -102.5z" />
<glyph unicode="&#xa4;" horiz-adv-x="1148" d="M197 270l118 117q-84 94 -84 229q0 137 84 232l-118 119l30 30l119 -120q92 80 225 79q139 0 230 -84l123 125l30 -30l-125 -123q82 -94 82 -228q0 -129 -80 -225l123 -121l-30 -30l-123 122q-92 -82 -230 -81q-133 0 -227 77l-117 -118zM272 616q0 -129 84 -211.5 t215 -82.5q133 0 216 82.5t83 211.5q0 131 -82.5 215t-216.5 84q-131 0 -215 -85t-84 -214z" />
<glyph unicode="&#xa5;" d="M111 1386v7h45l458 -738l457 738h47v-7l-471 -751h377v-41h-389v-182h389v-41h-389v-371h-41v371h-387v41h387v182h-387v41h373z" />
<glyph unicode="&#xa6;" horiz-adv-x="489" d="M223 326h43v-711h-43v711zM223 768v686h43v-686h-43z" />
<glyph unicode="&#xa7;" horiz-adv-x="1349" d="M168 604q0 106 82 192.5t246 112.5l-105 17q-88 12 -151.5 62t-63.5 140q0 117 131 201t361 84q264 0 485 -90l-14 -39q-205 90 -471 90q-211 0 -331 -73.5t-120 -172.5q0 -137 184 -163l400 -60q178 -27 279.5 -106.5t101.5 -206.5q0 -111 -84 -186.5t-234 -102.5 q154 -27 236 -76t82 -149q0 -131 -144.5 -205t-367.5 -74q-252 0 -480 92l13 39q227 -90 467 -90q205 0 338 62.5t133 175.5q0 82 -71 120t-226 66l-369 66q-162 29 -234.5 93t-72.5 181zM209 604q0 -100 61.5 -154.5t210.5 -80.5l238 -41q195 2 308.5 71.5t113.5 192.5 q0 221 -348 274l-166 25q-209 -2 -313.5 -88t-104.5 -199z" />
<glyph unicode="&#xa8;" d="M334 1378.5q0 53.5 45 53.5q41 0 41 -53.5t-41 -53.5q-45 0 -45 53.5zM838 1378.5q0 53.5 45 53.5q41 0 41 -53.5t-41 -53.5q-45 0 -45 53.5z" />
<glyph unicode="&#xa9;" horiz-adv-x="1740" d="M154 694q0 309 204.5 514t509.5 205q309 0 514 -204.5t205 -514.5q0 -305 -204.5 -509.5t-514.5 -204.5q-305 0 -509.5 204.5t-204.5 509.5zM195 694q0 -287 193.5 -480.5t479.5 -193.5q291 0 484.5 194t193.5 480q0 291 -193.5 484.5t-484.5 193.5q-287 0 -480 -193.5 t-193 -484.5zM522 694q0 166 97.5 262.5t252.5 96.5q133 0 207 -70t78 -192l-37 -9q-4 111 -67.5 171.5t-180.5 60.5q-139 0 -224 -86t-85 -234q0 -150 85 -234.5t226 -84.5q147 0 261 104l24 -30q-121 -113 -287 -113q-156 0 -253 96t-97 262z" />
<glyph unicode="&#xaa;" horiz-adv-x="999" d="M184 946q0 113 89 171.5t235 58.5q70 0 139 -19v41q0 90 -43 130t-139 40q-117 0 -207 -45l-10 41q86 45 217 45q223 0 223 -209v-338q0 -86 66 -86q33 0 73 29l11 -35q-43 -33 -93 -33q-86 0 -98 92q-96 -92 -225 -92q-106 0 -172 55.5t-66 153.5zM201 498v41h604v-41 h-604zM225 946q0 -76 53.5 -122t143.5 -46q125 0 225 96v242q-51 18 -139 19q-283 -1 -283 -189z" />
<glyph unicode="&#xab;" horiz-adv-x="997" d="M115 612v17l321 397h6l15 -33l-299 -372l301 -373l-17 -33h-6zM500 612v17l321 397h6l15 -33l-299 -372l301 -373l-17 -33h-6z" />
<glyph unicode="&#xac;" d="M160 721v41h907v-473h-41v432h-866z" />
<glyph unicode="&#xad;" horiz-adv-x="1064" d="M172 598v43h721v-43h-721z" />
<glyph unicode="&#xae;" horiz-adv-x="1740" d="M154 694q0 309 204.5 514t509.5 205q309 0 514 -204.5t205 -514.5q0 -305 -204.5 -509.5t-514.5 -204.5q-305 0 -509.5 204.5t-204.5 509.5zM195 694q0 -287 193.5 -480.5t479.5 -193.5q291 0 484.5 194t193.5 480q0 291 -193.5 484.5t-484.5 193.5q-287 0 -480 -193.5 t-193 -484.5zM602 346v696h219q68 0 114 -6t96 -26.5t76 -66.5t26 -118q0 -199 -265 -211q14 -14 72.5 -85.5t110 -113.5t102.5 -42q43 0 96 26l8 -37q-53 -27 -106 -26.5t-108.5 38.5t-93.5 85t-78 95t-62 60h-166v-268h-41zM643 647h260q80 0 134.5 48t54.5 128 q0 88 -54.5 135.5t-134.5 47.5h-260v-359z" />
<glyph unicode="&#xaf;" d="M393 1337v41h469v-41h-469z" />
<glyph unicode="&#xb0;" horiz-adv-x="937" d="M129 1071q0 147 96.5 243.5t243.5 96.5q150 0 245 -96t95 -244q0 -145 -95.5 -240.5t-244.5 -95.5q-147 0 -243.5 95.5t-96.5 240.5zM170 1071q0 -129 84 -212t215 -83q133 0 216 83t83 212q0 131 -83 215t-216 84q-131 0 -215 -85t-84 -214z" />
<glyph unicode="&#xb1;" d="M162 207v41h905v-41h-905zM162 821v41h432v432h41v-432h432v-41h-432v-370h-41v370h-432z" />
<glyph unicode="&#xb2;" horiz-adv-x="647" d="M94 1407q2 94 61.5 152.5t166 58.5t161 -55.5t54.5 -141.5q0 -125 -136 -225l-237 -178h395v-37h-457v37l273 205q123 92 123 194q0 72 -45 117t-131 45q-88 0 -137.5 -49t-51.5 -127z" />
<glyph unicode="&#xb3;" horiz-adv-x="655" d="M94 1016l12 37q92 -43 199 -43q90 0 150.5 38.5t60.5 106.5q0 59 -47 95t-131 36h-172v37h172q72 0 114 39t42 90q0 127 -189 127q-96 0 -194 -47l-13 37q104 49 207 49t165 -43t62 -121q0 -55 -31.5 -97t-88.5 -50q143 -23 143 -156q0 -84 -69.5 -132t-180.5 -48 q-90 0 -211 45z" />
<glyph unicode="&#xb4;" d="M518 1257l170 261h51l-170 -261h-51z" />
<glyph unicode="&#xb5;" horiz-adv-x="1288" d="M229 -385v1456h41v-620q0 -193 95.5 -312t279.5 -119q162 0 275.5 92.5t148.5 237.5v721h41v-1071h-41v244q-55 -121 -165.5 -192.5t-258.5 -71.5q-276 0 -375 239v-604h-41z" />
<glyph unicode="&#xb6;" horiz-adv-x="983" d="M92 868.5q0 94.5 58.5 147.5t150.5 55h158v-1456h-43v1053h-115q-92 0 -150.5 53t-58.5 147.5zM702 -385v1456h43v-1456h-43z" />
<glyph unicode="&#xb7;" horiz-adv-x="479" d="M172 614.5q0 75.5 66 75.5q70 0 69.5 -75.5t-69.5 -75.5q-66 0 -66 75.5z" />
<glyph unicode="&#xb8;" d="M449 -379l12 39q68 -25 131 -25q147 0 147 101q0 82 -127 82q-59 0 -123 -19l-4 6l50 195h40l-36 -150q41 8 75 9q76 0 121 -34t45 -89q0 -68 -54 -105t-134 -37q-75 0 -143 27z" />
<glyph unicode="&#xb9;" horiz-adv-x="483" d="M43 1487l262 119h39v-627h-39v586l-246 -113z" />
<glyph unicode="&#xba;" horiz-adv-x="1044" d="M182 1071q0 147 96.5 243.5t243.5 96.5q150 0 245 -96t95 -244q0 -145 -95 -240.5t-245 -95.5q-147 0 -243.5 95.5t-96.5 240.5zM221 498v41h604v-41h-604zM223 1071q0 -129 84 -212t215 -83q133 0 216 83t83 212q0 131 -83 215t-216 84q-131 0 -215 -85t-84 -214z" />
<glyph unicode="&#xbb;" horiz-adv-x="997" d="M154 993l16 33h6l322 -397v-17l-322 -397h-6l-14 33l299 373zM539 993l16 33h6l322 -397v-17l-322 -397h-6l-14 33l299 373z" />
<glyph unicode="&#xbc;" horiz-adv-x="1480" d="M78 1282l262 119h39v-627h-39v586l-246 -113zM248 0v6l753 1387h41v-7l-753 -1386h-41zM813 145v37l395 445h39v-445h150v-37h-150v-145h-39v145h-395zM862 182h346v385z" />
<glyph unicode="&#xbd;" horiz-adv-x="1411" d="M78 1272l262 119h39v-627h-39v586l-246 -113zM248 0v6l753 1387h41v-7l-753 -1386h-41zM834 426q2 94 61 152.5t165.5 58.5t161 -55.5t54.5 -141.5q0 -125 -135 -225l-238 -178h395v-37h-456v37l272 205q123 92 123 194q0 72 -45 117t-131 45q-90 0 -138.5 -49 t-50.5 -127z" />
<glyph unicode="&#xbe;" horiz-adv-x="1638" d="M129 811l12 37q92 -43 199 -43q90 0 150.5 39t60.5 106q0 59 -47 95t-131 36h-172v37h172q72 0 113.5 39t41.5 90q0 127 -188 127q-96 0 -195 -47l-12 37q104 49 206.5 49t165 -43t62.5 -121q0 -55 -31.5 -97t-89.5 -50q143 -23 144 -156q0 -84 -69.5 -132t-180.5 -48 q-90 0 -211 45zM408 0v6l753 1387h41v-7l-753 -1386h-41zM973 145v37l395 445h39v-445h149v-37h-149v-145h-39v145h-395zM1022 182h346v385z" />
<glyph unicode="&#xbf;" horiz-adv-x="964" d="M131 -2q0 86 33 154.5t63.5 97.5t96.5 82l129 100q51 39 67.5 63.5t16.5 63.5q0 27 -9 57h43q6 -27 7 -57q0 -88 -105 -166l-125 -96q-57 -43 -90 -76t-59.5 -91t-26.5 -132q0 -137 93 -219t233 -82q233 0 327 190l39 -24q-102 -207 -366 -207q-158 0 -262.5 95 t-104.5 247zM473 1020q0 80 74 80q70 0 69.5 -80t-69.5 -80q-74 0 -74 80z" />
<glyph unicode="&#xc0;" horiz-adv-x="1380" d="M53 0l627 1393h41l586 -1393h-41l-160 377h-842l-170 -377h-41zM283 418h807l-392 928zM506 1839h51l170 -260h-51z" />
<glyph unicode="&#xc1;" horiz-adv-x="1380" d="M53 0l627 1393h41l586 -1393h-41l-160 377h-842l-170 -377h-41zM283 418h807l-392 928zM649 1579l170 260h51l-170 -260h-51z" />
<glyph unicode="&#xc2;" horiz-adv-x="1380" d="M53 0l627 1393h41l586 -1393h-41l-160 377h-842l-170 -377h-41zM283 418h807l-392 928zM442 1579l232 260h51l231 -260h-61l-197 221l-194 -221h-62z" />
<glyph unicode="&#xc3;" horiz-adv-x="1380" d="M53 0l627 1393h41l586 -1393h-41l-160 377h-842l-170 -377h-41zM283 418h807l-392 928zM383 1667q68 123 174 123q51 0 148.5 -76t132.5 -76q92 0 145 109l29 -27q-66 -123 -172 -123q-51 0 -148.5 76t-134.5 76q-86 0 -145 -109z" />
<glyph unicode="&#xc4;" horiz-adv-x="1380" d="M53 0l627 1393h41l586 -1393h-41l-160 377h-842l-170 -377h-41zM283 418h807l-392 928zM403 1700q0 53 46 53q41 0 40.5 -53t-40.5 -53q-46 0 -46 53zM907 1700q0 53 45 53q41 0 41 -53t-41 -53q-45 0 -45 53z" />
<glyph unicode="&#xc5;" horiz-adv-x="1380" d="M53 0l611 1356q-72 12 -120 67.5t-48 130.5q0 84 59 142.5t141 58.5t141.5 -58.5t59.5 -142.5q0 -74 -46 -128t-116 -68l572 -1358h-41l-160 377h-842l-170 -377h-41zM283 418h807l-392 928zM537 1554.5q0 -65.5 47 -112.5t112.5 -47t112.5 47t47 112.5t-47 112.5 t-112.5 47t-112.5 -47t-47 -112.5z" />
<glyph unicode="&#xc6;" horiz-adv-x="2158" d="M29 0l938 1393h1028v-41h-987v-598h837v-41h-837v-672h987v-41h-1028v377h-633l-254 -377h-51zM362 418h605v899z" />
<glyph unicode="&#xc7;" horiz-adv-x="1564" d="M154 694q0 334 192.5 526.5t505.5 192.5q264 0 413.5 -140t155.5 -386l-39 -6q-6 231 -144 361t-386 130q-297 0 -477 -181t-180 -497q0 -313 180 -493.5t477 -180.5q152 0 299 63.5t242 154.5l30 -33q-100 -96 -253.5 -160.5t-317.5 -64.5q-35 0 -51 2l-31 -132 q41 8 76 9q76 0 121 -34t45 -89q0 -68 -54.5 -105t-134.5 -37q-76 0 -143 27l12 39q68 -25 131 -25q147 0 148 101q0 82 -127 82q-59 0 -123 -19l-4 6l45 179q-276 29 -442 216t-166 494z" />
<glyph unicode="&#xc8;" horiz-adv-x="1439" d="M248 0v1393h1028v-41h-987v-598h837v-41h-837v-672h987v-41h-1028zM567 1839h51l170 -260h-51z" />
<glyph unicode="&#xc9;" horiz-adv-x="1439" d="M248 0v1393h1028v-41h-987v-598h837v-41h-837v-672h987v-41h-1028zM719 1579l170 260h51l-170 -260h-51z" />
<glyph unicode="&#xca;" horiz-adv-x="1439" d="M248 0v1393h1028v-41h-987v-598h837v-41h-837v-672h987v-41h-1028zM504 1579l231 260h51l232 -260h-62l-196 221l-195 -221h-61z" />
<glyph unicode="&#xcb;" horiz-adv-x="1439" d="M248 0v1393h1028v-41h-987v-598h837v-41h-837v-672h987v-41h-1028zM465 1700q0 53 45 53q41 0 41 -53t-41 -53q-45 0 -45 53zM969 1700q0 53 45 53q41 0 41 -53t-41 -53q-45 0 -45 53z" />
<glyph unicode="&#xcc;" horiz-adv-x="536" d="M92 1839h51l170 -260h-51zM248 0v1393h41v-1393h-41z" />
<glyph unicode="&#xcd;" horiz-adv-x="536" d="M238 1579l170 260h51l-170 -260h-51zM248 0v1393h41v-1393h-41z" />
<glyph unicode="&#xce;" horiz-adv-x="536" d="M10 1579l232 260h51l231 -260h-61l-197 221l-194 -221h-62zM248 0v1393h41v-1393h-41z" />
<glyph unicode="&#xcf;" horiz-adv-x="536" d="M-29 1700q0 53 45 53q41 0 41 -53t-41 -53q-45 0 -45 53zM248 0v1393h41v-1393h-41zM475 1700q0 53 45 53q41 0 41 -53t-41 -53q-45 0 -45 53z" />
<glyph unicode="&#xd0;" horiz-adv-x="1607" d="M113 682v41h135v670h489q319 -2 519 -185.5t200 -513.5q0 -328 -199.5 -511t-519.5 -183h-489v682h-135zM289 41h448q303 0 490.5 171t187.5 482q0 313 -187.5 484.5t-490.5 173.5h-448v-629h416v-41h-416v-641z" />
<glyph unicode="&#xd1;" horiz-adv-x="1703" d="M248 0v1393h41l1126 -1332v1332h41v-1393h-41l-1126 1325v-1325h-41zM557 1667q68 123 174 123q51 0 148.5 -76t132.5 -76q90 0 145 109l29 -27q-66 -123 -172 -123q-51 0 -148.5 76t-134.5 76q-86 0 -145 -109z" />
<glyph unicode="&#xd2;" horiz-adv-x="1728" d="M147 694q0 309 205 514t510 205q309 0 514 -204.5t205 -514.5q0 -305 -205 -509.5t-514 -204.5q-305 0 -510 204.5t-205 509.5zM188 694q0 -291 191.5 -482.5t482.5 -191.5q293 0 485.5 191.5t192.5 482.5q0 293 -192.5 485.5t-485.5 192.5q-291 0 -482.5 -192.5 t-191.5 -485.5zM670 1839h51l170 -260h-51z" />
<glyph unicode="&#xd3;" horiz-adv-x="1728" d="M147 694q0 309 205 514t510 205q309 0 514 -204.5t205 -514.5q0 -305 -205 -509.5t-514 -204.5q-305 0 -510 204.5t-205 509.5zM188 694q0 -291 191.5 -482.5t482.5 -191.5q293 0 485.5 191.5t192.5 482.5q0 293 -192.5 485.5t-485.5 192.5q-291 0 -482.5 -192.5 t-191.5 -485.5zM834 1579l170 260h51l-170 -260h-51z" />
<glyph unicode="&#xd4;" horiz-adv-x="1728" d="M147 694q0 309 205 514t510 205q309 0 514 -204.5t205 -514.5q0 -305 -205 -509.5t-514 -204.5q-305 0 -510 204.5t-205 509.5zM188 694q0 -291 191.5 -482.5t482.5 -191.5q293 0 485.5 191.5t192.5 482.5q0 293 -192.5 485.5t-485.5 192.5q-291 0 -482.5 -192.5 t-191.5 -485.5zM604 1579l232 260h51l231 -260h-61l-197 221l-194 -221h-62z" />
<glyph unicode="&#xd5;" horiz-adv-x="1728" d="M147 694q0 309 205 514t510 205q309 0 514 -204.5t205 -514.5q0 -305 -205 -509.5t-514 -204.5q-305 0 -510 204.5t-205 509.5zM188 694q0 -291 191.5 -482.5t482.5 -191.5q293 0 485.5 191.5t192.5 482.5q0 293 -192.5 485.5t-485.5 192.5q-291 0 -482.5 -192.5 t-191.5 -485.5zM547 1667q68 123 174 123q51 0 148.5 -76t131.5 -76q92 0 146 109l29 -27q-66 -123 -172 -123q-51 0 -148.5 76t-134.5 76q-86 0 -146 -109z" />
<glyph unicode="&#xd6;" horiz-adv-x="1728" d="M147 694q0 309 205 514t510 205q309 0 514 -204.5t205 -514.5q0 -305 -205 -509.5t-514 -204.5q-305 0 -510 204.5t-205 509.5zM188 694q0 -291 191.5 -482.5t482.5 -191.5q293 0 485.5 191.5t192.5 482.5q0 293 -192.5 485.5t-485.5 192.5q-291 0 -482.5 -192.5 t-191.5 -485.5zM567 1700q0 53 45 53q41 0 41 -53t-41 -53q-45 0 -45 53zM1071 1700q0 53 45 53q41 0 41 -53t-41 -53q-45 0 -45 53z" />
<glyph unicode="&#xd7;" d="M281 313l305 305l-305 306l28 28l305 -305l306 305l28 -28l-305 -306l305 -305l-28 -28l-306 305l-305 -305z" />
<glyph unicode="&#xd8;" horiz-adv-x="1728" d="M147 694q0 309 205 514t510 205q250 0 443 -143l98 123h45v-7l-115 -141q248 -209 248 -551q0 -305 -205 -509.5t-514 -204.5q-252 0 -438 141l-98 -121h-45v6l112 139q-117 98 -181.5 240.5t-64.5 308.5zM188 694q0 -326 230 -518l860 1063q-178 133 -416 133 q-291 0 -482.5 -192.5t-191.5 -485.5zM449 152q176 -131 413 -132q293 0 485.5 191.5t192.5 482.5q0 326 -231 520z" />
<glyph unicode="&#xd9;" horiz-adv-x="1597" d="M227 549v844h41v-844q0 -246 131 -389.5t398 -143.5q264 0 398 150.5t134 384.5v842h41v-844q0 -246 -147.5 -410t-425.5 -164q-281 0 -425.5 157t-144.5 417zM604 1839h51l170 -260h-51z" />
<glyph unicode="&#xda;" horiz-adv-x="1597" d="M227 549v844h41v-844q0 -246 131 -389.5t398 -143.5q264 0 398 150.5t134 384.5v842h41v-844q0 -246 -147.5 -410t-425.5 -164q-281 0 -425.5 157t-144.5 417zM768 1579l170 260h51l-170 -260h-51z" />
<glyph unicode="&#xdb;" horiz-adv-x="1597" d="M227 549v844h41v-844q0 -246 131 -389.5t398 -143.5q264 0 398 150.5t134 384.5v842h41v-844q0 -246 -147.5 -410t-425.5 -164q-281 0 -425.5 157t-144.5 417zM539 1579l231 260h51l232 -260h-62l-196 221l-195 -221h-61z" />
<glyph unicode="&#xdc;" horiz-adv-x="1597" d="M227 549v844h41v-844q0 -246 131 -389.5t398 -143.5q264 0 398 150.5t134 384.5v842h41v-844q0 -246 -147.5 -410t-425.5 -164q-281 0 -425.5 157t-144.5 417zM502 1700q0 53 45 53q41 0 41 -53t-41 -53q-45 0 -45 53zM1006 1700q0 53 45 53q41 0 41 -53t-41 -53 q-45 0 -45 53z" />
<glyph unicode="&#xdd;" horiz-adv-x="1339" d="M43 1386v7h45l582 -742l581 742h45v-7l-606 -772v-614h-41v612zM639 1579l170 260h51l-170 -260h-51z" />
<glyph unicode="&#xde;" horiz-adv-x="1382" d="M248 0v1393h41v-246h512q211 0 341 -102.5t130 -331.5q0 -209 -134 -317.5t-337 -108.5h-512v-287h-41zM289 328h510q190 0 311 96t121 289q0 209 -119 301t-313 92h-510v-778z" />
<glyph unicode="&#xdf;" horiz-adv-x="1304" d="M211 0v961q0 231 123 372.5t328 141.5q176 0 294.5 -105.5t118.5 -265.5q0 -92 -57 -172t-114.5 -131t-57.5 -72q0 -14 54 -50t118.5 -80t119 -122t54.5 -166q0 -156 -110.5 -243.5t-282.5 -87.5q-190 0 -312 73l15 41q123 -74 297 -74q150 0 251 79t101 212 q0 68 -36 128.5t-86 100.5t-101 73.5t-87 63.5t-36 52q0 27 36 67t79 77.5t78.5 100t35.5 130.5q0 145 -108.5 237.5t-263.5 92.5q-188 0 -299 -127t-111 -346v-961h-41z" />
<glyph unicode="&#xe0;" horiz-adv-x="1378" d="M127 530q0 246 147.5 403t389.5 157q223 0 391 -168v149h41v-899q0 -152 114 -152q51 0 127 52l19 -35q-72 -57 -146 -57q-143 0 -155 163q-70 -70 -173.5 -116.5t-217.5 -46.5q-242 0 -389.5 153t-147.5 397zM168 530q0 -225 136 -367.5t360 -142.5q119 0 223 51.5 t168 125.5v673q-63 74 -167 126.5t-224 52.5q-223 0 -359.5 -146t-136.5 -373zM520 1518h51l170 -261h-51z" />
<glyph unicode="&#xe1;" horiz-adv-x="1378" d="M127 530q0 246 147.5 403t389.5 157q223 0 391 -168v149h41v-899q0 -152 114 -152q51 0 127 52l19 -35q-72 -57 -146 -57q-143 0 -155 163q-70 -70 -173.5 -116.5t-217.5 -46.5q-242 0 -389.5 153t-147.5 397zM168 530q0 -225 136 -367.5t360 -142.5q119 0 223 51.5 t168 125.5v673q-63 74 -167 126.5t-224 52.5q-223 0 -359.5 -146t-136.5 -373zM664 1257l170 261h51l-170 -261h-51z" />
<glyph unicode="&#xe2;" horiz-adv-x="1378" d="M127 530q0 246 147.5 403t389.5 157q223 0 391 -168v149h41v-899q0 -152 114 -152q51 0 127 52l19 -35q-72 -57 -146 -57q-143 0 -155 163q-70 -70 -173.5 -116.5t-217.5 -46.5q-242 0 -389.5 153t-147.5 397zM168 530q0 -225 136 -367.5t360 -142.5q119 0 223 51.5 t168 125.5v673q-63 74 -167 126.5t-224 52.5q-223 0 -359.5 -146t-136.5 -373zM414 1257l231 261h51l232 -261h-62l-196 222l-195 -222h-61z" />
<glyph unicode="&#xe3;" horiz-adv-x="1378" d="M127 530q0 246 147.5 403t389.5 157q223 0 391 -168v149h41v-899q0 -152 114 -152q51 0 127 52l19 -35q-72 -57 -146 -57q-143 0 -155 163q-70 -70 -173.5 -116.5t-217.5 -46.5q-242 0 -389.5 153t-147.5 397zM168 530q0 -225 136 -367.5t360 -142.5q119 0 223 51.5 t168 125.5v673q-63 74 -167 126.5t-224 52.5q-223 0 -359.5 -146t-136.5 -373zM356 1346q68 123 174 122q51 0 148.5 -75.5t132.5 -75.5q90 0 145 108l29 -26q-66 -123 -172 -123q-51 0 -148.5 75.5t-134.5 75.5q-86 0 -145 -108z" />
<glyph unicode="&#xe4;" horiz-adv-x="1378" d="M127 530q0 246 147.5 403t389.5 157q223 0 391 -168v149h41v-899q0 -152 114 -152q51 0 127 52l19 -35q-72 -57 -146 -57q-143 0 -155 163q-70 -70 -173.5 -116.5t-217.5 -46.5q-242 0 -389.5 153t-147.5 397zM168 530q0 -225 136 -367.5t360 -142.5q119 0 223 51.5 t168 125.5v673q-63 74 -167 126.5t-224 52.5q-223 0 -359.5 -146t-136.5 -373zM418 1378.5q0 53.5 45 53.5q41 0 41 -53.5t-41 -53.5q-45 0 -45 53.5zM922 1378.5q0 53.5 45 53.5q41 0 41 -53.5t-41 -53.5q-45 0 -45 53.5z" />
<glyph unicode="&#xe5;" horiz-adv-x="1378" d="M127 530q0 246 147.5 403t389.5 157q223 0 391 -168v149h41v-899q0 -152 114 -152q51 0 127 52l19 -35q-72 -57 -146 -57q-143 0 -155 163q-70 -70 -173.5 -116.5t-217.5 -46.5q-242 0 -389.5 153t-147.5 397zM168 530q0 -225 136 -367.5t360 -142.5q119 0 223 51.5 t168 125.5v673q-63 74 -167 126.5t-224 52.5q-223 0 -359.5 -146t-136.5 -373zM492 1372q0 82 59 141.5t141 59.5t141.5 -59.5t59.5 -141.5t-59.5 -141.5t-141.5 -59.5t-141 59.5t-59 141.5zM532 1372.5q0 -65.5 47.5 -113t113 -47.5t112.5 47.5t47 113t-47 112.5t-112.5 47 t-113 -47t-47.5 -112.5z" />
<glyph unicode="&#xe6;" horiz-adv-x="1931" d="M102 309q0 195 149.5 287t395.5 92q158 0 256 -24q0 215 -65.5 306t-257.5 91q-205 0 -355 -76l-12 41q141 74 373 74q104 0 174.5 -24.5t106.5 -75t52.5 -100.5t22.5 -126q41 125 148.5 225.5t275.5 100.5q211 0 323.5 -128t112.5 -319q0 -82 -16 -141h-842 q2 -111 22.5 -196t66.5 -156.5t132 -110.5t207 -39q119 0 206 37t177 107l27 -37q-182 -145 -410 -146q-160 0 -267.5 65.5t-150.5 176.5q-41 -45 -72.5 -74.5t-93 -75t-135 -70t-155.5 -24.5q-178 0 -287 93t-109 247zM143 309q0 -135 96.5 -217t258.5 -82q70 0 132 18.5 t120.5 61.5t80 61.5t72.5 69.5v400q-111 27 -256 26q-229 0 -366.5 -82t-137.5 -256zM948 553h805q8 61 8 100q0 172 -101 289t-290 117q-141 0 -240.5 -81t-140.5 -191.5t-41 -233.5z" />
<glyph unicode="&#xe7;" horiz-adv-x="1255" d="M129 532q0 250 151.5 409t405.5 159q207 0 323.5 -107.5t125.5 -287.5l-41 -11q-8 168 -112.5 266.5t-295.5 98.5q-238 0 -377 -147.5t-139 -379.5q0 -238 128 -379t398 -141q207 0 408 148l22 -39q-190 -150 -430 -150q-12 0 -32.5 1t-28.5 1l-31 -123q41 8 76 9 q76 0 121 -34t45 -89q0 -68 -54.5 -105t-134.5 -37q-76 0 -143 27l12 39q68 -25 131 -25q147 0 148 101q0 82 -127 82q-59 0 -123 -19l-4 6l43 172q-238 27 -351.5 175.5t-113.5 379.5z" />
<glyph unicode="&#xe8;" horiz-adv-x="1273" d="M125 532q0 240 151.5 404t401.5 164q231 0 349 -127t118 -320q0 -82 -17 -141h-964q4 -221 136 -361.5t394 -140.5q219 0 404 144l26 -37q-182 -145 -430 -146q-287 0 -428 157.5t-141 403.5zM164 553h932q8 61 8 100q0 174 -107.5 290t-318.5 116q-229 0 -369.5 -146.5 t-144.5 -359.5zM516 1518h51l170 -261h-51z" />
<glyph unicode="&#xe9;" horiz-adv-x="1273" d="M125 532q0 240 151.5 404t401.5 164q231 0 349 -127t118 -320q0 -82 -17 -141h-964q4 -221 136 -361.5t394 -140.5q219 0 404 144l26 -37q-182 -145 -430 -146q-287 0 -428 157.5t-141 403.5zM164 553h932q8 61 8 100q0 174 -107.5 290t-318.5 116q-229 0 -369.5 -146.5 t-144.5 -359.5zM639 1257l170 261h51l-170 -261h-51z" />
<glyph unicode="&#xea;" horiz-adv-x="1273" d="M125 532q0 240 151.5 404t401.5 164q231 0 349 -127t118 -320q0 -82 -17 -141h-964q4 -221 136 -361.5t394 -140.5q219 0 404 144l26 -37q-182 -145 -430 -146q-287 0 -428 157.5t-141 403.5zM164 553h932q8 61 8 100q0 174 -107.5 290t-318.5 116q-229 0 -369.5 -146.5 t-144.5 -359.5zM432 1257l232 261h51l231 -261h-61l-197 222l-194 -222h-62z" />
<glyph unicode="&#xeb;" horiz-adv-x="1273" d="M125 532q0 240 151.5 404t401.5 164q231 0 349 -127t118 -320q0 -82 -17 -141h-964q4 -221 136 -361.5t394 -140.5q219 0 404 144l26 -37q-182 -145 -430 -146q-287 0 -428 157.5t-141 403.5zM164 553h932q8 61 8 100q0 174 -107.5 290t-318.5 116q-229 0 -369.5 -146.5 t-144.5 -359.5zM393 1378.5q0 53.5 45 53.5q41 0 41 -53.5t-41 -53.5q-45 0 -45 53.5zM897 1378.5q0 53.5 45 53.5q41 0 41 -53.5t-41 -53.5q-45 0 -45 53.5z" />
<glyph unicode="&#xec;" horiz-adv-x="548" d="M70 1518h51l170 -261h-51zM215 172v899h41v-899q0 -152 115 -152q53 0 125 52l20 -35q-72 -57 -147 -57q-154 -1 -154 192z" />
<glyph unicode="&#xed;" horiz-adv-x="548" d="M213 1257l170 261h51l-170 -261h-51zM215 172v899h41v-899q0 -152 115 -152q53 0 125 52l20 -35q-72 -57 -147 -57q-154 -1 -154 192z" />
<glyph unicode="&#xee;" horiz-adv-x="548" d="M-23 1257l232 261h51l232 -261h-62l-197 222l-194 -222h-62zM215 172v899h41v-899q0 -152 115 -152q53 0 125 52l20 -35q-72 -57 -147 -57q-154 -1 -154 192z" />
<glyph unicode="&#xef;" horiz-adv-x="548" d="M-59 1378.5q0 53.5 45 53.5q41 0 41 -53.5t-41 -53.5q-45 0 -45 53.5zM215 172v899h41v-899q0 -152 115 -152q53 0 125 52l20 -35q-72 -57 -147 -57q-154 -1 -154 192zM444 1378.5q0 53.5 45 53.5q41 0 41 -53.5t-41 -53.5q-45 0 -45 53.5z" />
<glyph unicode="&#xf0;" horiz-adv-x="1286" d="M137 463q0 219 122 343t329 124q100 0 188 -37t147.5 -96.5t96.5 -109.5t63 -101q6 55 7 112q0 344 -242 572l-158 -160l-26 29l155 157q-113 98 -250 144l19 35q143 -47 258 -150l151 154l29 -29l-149 -152q254 -244 253 -600q0 -328 -143 -523t-395 -195 q-195 0 -325 136t-130 347zM178 463q0 -190 119 -316.5t295 -126.5q195 0 321.5 134.5t163.5 367.5q-18 41 -49 89t-90 118t-151.5 115t-198.5 45q-182 0 -296 -111.5t-114 -314.5z" />
<glyph unicode="&#xf1;" horiz-adv-x="1363" d="M211 0v1071h41v-242q55 125 164.5 193t259.5 68q201 0 308.5 -131.5t107.5 -342.5v-444q0 -152 114 -152q51 0 127 52l19 -35q-72 -57 -146 -57q-156 0 -155 192v444q0 190 -95.5 311.5t-279.5 121.5q-164 0 -277.5 -91.5t-146.5 -236.5v-721h-41zM356 1346 q68 123 174 122q51 0 148.5 -75.5t132.5 -75.5q90 0 145 108l29 -26q-66 -123 -172 -123q-51 0 -148.5 75.5t-134.5 75.5q-86 0 -145 -108z" />
<glyph unicode="&#xf2;" horiz-adv-x="1380" d="M125 532q0 246 157.5 407t405.5 161q250 0 408.5 -161t158.5 -407q0 -244 -158.5 -402.5t-408.5 -158.5q-248 0 -405.5 158.5t-157.5 402.5zM166 532q0 -225 146.5 -372.5t375.5 -147.5q231 0 378.5 147.5t147.5 372.5q0 227 -147 377t-379 150q-229 0 -375.5 -150 t-146.5 -377zM496 1518h51l170 -261h-51z" />
<glyph unicode="&#xf3;" horiz-adv-x="1380" d="M125 532q0 246 157.5 407t405.5 161q250 0 408.5 -161t158.5 -407q0 -244 -158.5 -402.5t-408.5 -158.5q-248 0 -405.5 158.5t-157.5 402.5zM166 532q0 -225 146.5 -372.5t375.5 -147.5q231 0 378.5 147.5t147.5 372.5q0 227 -147 377t-379 150q-229 0 -375.5 -150 t-146.5 -377zM659 1257l170 261h52l-170 -261h-52z" />
<glyph unicode="&#xf4;" horiz-adv-x="1380" d="M125 532q0 246 157.5 407t405.5 161q250 0 408.5 -161t158.5 -407q0 -244 -158.5 -402.5t-408.5 -158.5q-248 0 -405.5 158.5t-157.5 402.5zM166 532q0 -225 146.5 -372.5t375.5 -147.5q231 0 378.5 147.5t147.5 372.5q0 227 -147 377t-379 150q-229 0 -375.5 -150 t-146.5 -377zM430 1257l232 261h51l231 -261h-61l-197 222l-194 -222h-62z" />
<glyph unicode="&#xf5;" horiz-adv-x="1380" d="M125 532q0 246 157.5 407t405.5 161q250 0 408.5 -161t158.5 -407q0 -244 -158.5 -402.5t-408.5 -158.5q-248 0 -405.5 158.5t-157.5 402.5zM166 532q0 -225 146.5 -372.5t375.5 -147.5q231 0 378.5 147.5t147.5 372.5q0 227 -147 377t-379 150q-229 0 -375.5 -150 t-146.5 -377zM373 1346q68 123 174 122q51 0 148.5 -75.5t131.5 -75.5q90 0 146 108l28 -26q-66 -123 -172 -123q-51 0 -148 75.5t-134 75.5q-86 0 -146 -108z" />
<glyph unicode="&#xf6;" horiz-adv-x="1380" d="M125 532q0 246 157.5 407t405.5 161q250 0 408.5 -161t158.5 -407q0 -244 -158.5 -402.5t-408.5 -158.5q-248 0 -405.5 158.5t-157.5 402.5zM166 532q0 -225 146.5 -372.5t375.5 -147.5q231 0 378.5 147.5t147.5 372.5q0 227 -147 377t-379 150q-229 0 -375.5 -150 t-146.5 -377zM393 1378.5q0 53.5 45 53.5q41 0 41 -53.5t-41 -53.5q-45 0 -45 53.5zM897 1378.5q0 53.5 45 53.5q41 0 41 -53.5t-41 -53.5q-45 0 -45 53.5z" />
<glyph unicode="&#xf7;" d="M162 598v41h905v-41h-905zM520 285q0 80 70 80q74 0 74 -80t-74 -80q-70 0 -70 80zM520 954q0 80 70 80q74 0 74 -80t-74 -80q-70 0 -70 80z" />
<glyph unicode="&#xf8;" horiz-adv-x="1380" d="M125 532q0 246 157.5 407t405.5 161q217 0 369 -125l76 94h45v-6l-93 -115q170 -160 170 -416q0 -244 -158.5 -402.5t-408.5 -158.5q-180 0 -321 90l-50 -61h-45v6l64 78q-211 159 -211 448zM166 532q0 -268 196 -415l668 825q-143 117 -342 117q-229 0 -375.5 -150 t-146.5 -377zM393 94q127 -82 295 -82q231 0 378.5 147.5t147.5 372.5q0 233 -155 383z" />
<glyph unicode="&#xf9;" horiz-adv-x="1355" d="M193 449v622h40v-620q0 -193 95.5 -312t279.5 -119q162 0 275.5 92.5t148.5 237.5v721h41v-899q0 -152 113 -152q51 0 127 52l20 -35q-72 -57 -147 -57q-154 0 -154 192v72q-55 -121 -165.5 -192.5t-258.5 -71.5q-201 0 -308 129t-107 340zM457 1518h51l170 -261h-51z " />
<glyph unicode="&#xfa;" horiz-adv-x="1355" d="M193 449v622h40v-620q0 -193 95.5 -312t279.5 -119q162 0 275.5 92.5t148.5 237.5v721h41v-899q0 -152 113 -152q51 0 127 52l20 -35q-72 -57 -147 -57q-154 0 -154 192v72q-55 -121 -165.5 -192.5t-258.5 -71.5q-201 0 -308 129t-107 340zM610 1257l170 261h51 l-169 -261h-52z" />
<glyph unicode="&#xfb;" horiz-adv-x="1355" d="M193 449v622h40v-620q0 -193 95.5 -312t279.5 -119q162 0 275.5 92.5t148.5 237.5v721h41v-899q0 -152 113 -152q51 0 127 52l20 -35q-72 -57 -147 -57q-154 0 -154 192v72q-55 -121 -165.5 -192.5t-258.5 -71.5q-201 0 -308 129t-107 340zM391 1257l232 261h51l231 -261 h-61l-197 222l-194 -222h-62z" />
<glyph unicode="&#xfc;" horiz-adv-x="1355" d="M193 449v622h40v-620q0 -193 95.5 -312t279.5 -119q162 0 275.5 92.5t148.5 237.5v721h41v-899q0 -152 113 -152q51 0 127 52l20 -35q-72 -57 -147 -57q-154 0 -154 192v72q-55 -121 -165.5 -192.5t-258.5 -71.5q-201 0 -308 129t-107 340zM348 1378.5q0 53.5 45 53.5 q41 0 41 -53.5t-41 -53.5q-45 0 -45 53.5zM852 1378.5q0 53.5 45 53.5q41 0 41 -53.5t-41 -53.5q-45 0 -45 53.5z" />
<glyph unicode="&#xfd;" horiz-adv-x="1153" d="M-4 -330l16 41q109 -76 228 -76q113 0 177 62.5t122 196.5l43 104l-535 1073h45l512 -1024l453 1024h45l-522 -1188q-63 -143 -138 -216t-202 -73q-125 0 -244 76zM555 1257l170 261h51l-170 -261h-51z" />
<glyph unicode="&#xfe;" horiz-adv-x="1308" d="M211 -385v1839h41v-532q168 168 393 168q242 0 389.5 -154t147.5 -399.5t-147.5 -401t-389.5 -155.5q-223 0 -393 165v-530h-41zM252 199q61 -74 166.5 -126.5t226.5 -52.5q223 0 359.5 144.5t136.5 372.5q0 225 -136.5 368.5t-359.5 143.5q-121 0 -225.5 -54.5 t-167.5 -128.5v-667z" />
<glyph unicode="&#xff;" horiz-adv-x="1153" d="M-4 -330l16 41q109 -76 228 -76q113 0 177 62.5t122 196.5l43 104l-535 1073h45l512 -1024l453 1024h45l-522 -1188q-63 -143 -138 -216t-202 -73q-125 0 -244 76zM297 1378.5q0 53.5 45 53.5q41 0 41 -53.5t-41 -53.5q-45 0 -45 53.5zM801 1378.5q0 53.5 45 53.5 q41 0 41 -53.5t-41 -53.5q-45 0 -45 53.5z" />
<glyph unicode="&#x152;" horiz-adv-x="2537" d="M147 694q0 309 205 514t510 205q276 0 484 -184v164h1028v-41h-988v-598h838v-41h-838v-672h988v-41h-1028v162q-209 -182 -484 -182q-305 0 -510 204.5t-205 509.5zM188 694q0 -291 191.5 -482.5t482.5 -191.5q285 0 484 195v961q-201 197 -484 196 q-291 0 -482.5 -192.5t-191.5 -485.5z" />
<glyph unicode="&#x153;" horiz-adv-x="2367" d="M125 532q0 246 157.5 407t405.5 161q207 0 354.5 -114t194.5 -300q45 184 186.5 299t348.5 115q231 0 348.5 -127t117.5 -320q0 -82 -16 -141h-965q4 -221 136.5 -361.5t394.5 -140.5q219 0 403 144l27 -37q-182 -145 -430 -146q-236 0 -374 109.5t-179 292.5 q-49 -182 -195.5 -292t-351.5 -110q-248 0 -405.5 158.5t-157.5 402.5zM166 532q0 -225 146.5 -372.5t375.5 -147.5q231 0 378.5 147.5t147.5 372.5q0 227 -147 377t-379 150q-229 0 -375.5 -150t-146.5 -377zM1257 553h932q8 61 9 100q0 174 -108 290t-318 116 q-229 0 -370 -146.5t-145 -359.5z" />
<glyph unicode="&#x178;" horiz-adv-x="1339" d="M43 1386v7h45l582 -742l581 742h45v-7l-606 -772v-614h-41v612zM373 1700q0 53 45 53q41 0 41 -53t-41 -53q-45 0 -45 53zM877 1700q0 53 45 53q41 0 41 -53t-41 -53q-45 0 -45 53z" />
<glyph unicode="&#x2c6;" d="M371 1257l231 261h51l232 -261h-62l-196 222l-195 -222h-61z" />
<glyph unicode="&#x2dc;" d="M313 1346q68 123 174 122q51 0 148.5 -75.5t132.5 -75.5q92 0 145 108l29 -26q-66 -123 -172 -123q-51 0 -148.5 75.5t-134.5 75.5q-86 0 -145 -108z" />
<glyph unicode="&#x2000;" horiz-adv-x="919" />
<glyph unicode="&#x2001;" horiz-adv-x="1839" />
<glyph unicode="&#x2002;" horiz-adv-x="919" />
<glyph unicode="&#x2003;" horiz-adv-x="1839" />
<glyph unicode="&#x2004;" horiz-adv-x="612" />
<glyph unicode="&#x2005;" horiz-adv-x="458" />
<glyph unicode="&#x2006;" horiz-adv-x="305" />
<glyph unicode="&#x2007;" horiz-adv-x="305" />
<glyph unicode="&#x2008;" horiz-adv-x="229" />
<glyph unicode="&#x2009;" horiz-adv-x="366" />
<glyph unicode="&#x200a;" horiz-adv-x="100" />
<glyph unicode="&#x2010;" horiz-adv-x="1064" d="M172 598v43h721v-43h-721z" />
<glyph unicode="&#x2011;" horiz-adv-x="1064" d="M172 598v43h721v-43h-721z" />
<glyph unicode="&#x2012;" horiz-adv-x="1064" d="M172 598v43h721v-43h-721z" />
<glyph unicode="&#x2013;" horiz-adv-x="1249" d="M172 598v43h905v-43h-905z" />
<glyph unicode="&#x2014;" horiz-adv-x="1701" d="M172 598v43h1358v-43h-1358z" />
<glyph unicode="&#x2018;" horiz-adv-x="452" d="M150 1026q0 68 44 202t72 185l33 -14l-98 -303q45 0 69.5 -20.5t24.5 -49.5q0 -80 -72 -80q-35 0 -54 23.5t-19 56.5z" />
<glyph unicode="&#x2019;" horiz-adv-x="440" d="M160 956l102 304q-45 0 -69.5 20t-24.5 49q0 80 72 80q35 0 54 -23.5t19 -56.5q0 -66 -46 -201t-74 -186z" />
<glyph unicode="&#x201a;" horiz-adv-x="483" d="M162 -330l102 303q-45 0 -69.5 20.5t-24.5 49.5q0 80 72 80q35 0 54 -23.5t19 -56.5q0 -66 -46 -201t-74 -186z" />
<glyph unicode="&#x201c;" horiz-adv-x="778" d="M150 1026q0 68 44 202t72 185l33 -14l-98 -303q45 0 69.5 -20.5t24.5 -49.5q0 -80 -72 -80q-35 0 -54 23.5t-19 56.5zM475 1026q0 68 44 202t73 185l33 -14l-99 -303q45 0 70 -20.5t25 -49.5q0 -80 -72 -80q-35 0 -54.5 23.5t-19.5 56.5z" />
<glyph unicode="&#x201d;" horiz-adv-x="761" d="M160 956l98 304q-45 0 -69.5 20t-24.5 49q0 80 72 80q35 0 54 -23.5t19 -56.5q0 -66 -45 -202t-71 -185zM485 956l99 304q-45 0 -70 20t-25 49q0 80 72 80q35 0 54.5 -23.5t19.5 -56.5q0 -66 -45 -202t-72 -185z" />
<glyph unicode="&#x201e;" horiz-adv-x="808" d="M166 -330l98 303q-45 0 -69.5 20.5t-24.5 49.5q0 80 72 80q35 0 54 -23.5t19 -56.5q0 -66 -45 -202t-71 -185zM492 -330l98 303q-45 0 -69.5 20.5t-24.5 49.5q0 80 71 80q35 0 54.5 -23.5t19.5 -56.5q0 -66 -45 -202t-72 -185z" />
<glyph unicode="&#x2022;" horiz-adv-x="583" d="M172 618q0 131 117 132q123 0 123 -132q0 -133 -123 -133q-117 0 -117 133z" />
<glyph unicode="&#x2026;" horiz-adv-x="1304" d="M172 49q0 80 70 80q74 0 73.5 -80t-73.5 -80q-70 0 -70 80zM582 49q0 80 69 80q74 0 74 -80t-74 -80q-69 0 -69 80zM991 49q0 80 70 80q74 0 74 -80t-74 -80q-70 0 -70 80z" />
<glyph unicode="&#x202f;" horiz-adv-x="366" />
<glyph unicode="&#x2039;" horiz-adv-x="612" d="M115 612v17l321 397h6l15 -33l-299 -372l301 -373l-17 -33h-6z" />
<glyph unicode="&#x203a;" horiz-adv-x="612" d="M154 993l16 33h6l322 -397v-17l-322 -397h-6l-14 33l299 373z" />
<glyph unicode="&#x205f;" horiz-adv-x="458" />
<glyph unicode="&#x20ac;" d="M98 557v41h109q-2 31 -2 96q0 59 2 88h-109v41h111q27 287 166 438.5t354 151.5q211 0 391 -153l-18 -39q-170 152 -373 151q-201 0 -327 -140t-150 -409h663l-20 -41h-647q-2 -29 -2 -88q0 -66 2 -96h563l-20 -41h-539q27 -260 153.5 -397t323.5 -137q213 0 381 133 l20 -35q-172 -141 -401 -141q-213 0 -351 148t-167 429h-113z" />
<glyph unicode="&#x2122;" horiz-adv-x="1742" d="M147 1317v41h535v-41h-240v-586h-41v586h-254zM856 731v627h41l291 -359l291 359h41v-627h-41v565l-285 -352h-12l-285 352v-565h-41z" />
<glyph unicode="&#xe000;" horiz-adv-x="1070" d="M0 1070h1070v-1070h-1070v1070z" />
<glyph unicode="&#xfb01;" horiz-adv-x="1501" d="M90 956v41h244v127q0 160 75.5 255.5t235.5 95.5q172 0 268 -136l-28 -26q-92 121 -240 121q-270 0 -270 -310v-127h456v-41h-456v-956h-41v956h-244zM1145 1378.5q0 53.5 45 53.5q41 0 41 -53.5t-41 -53.5q-45 0 -45 53.5zM1167 172v899h41v-899q0 -152 115 -152 q53 0 125 52l20 -35q-72 -57 -147 -57q-154 -1 -154 192z" />
<glyph unicode="&#xfb02;" horiz-adv-x="1517" d="M90 956v41h244v127q0 160 75.5 255.5t235.5 95.5q172 0 268 -136l-28 -26q-92 121 -240 121q-270 0 -270 -310v-127h456v-41h-456v-956h-41v956h-244zM1145 190v1264h41v-1261q0 -172 153 -173q70 0 146 52l20 -35q-72 -57 -166 -57q-88 0 -141 52t-53 158z" />
<glyph unicode="&#xfb03;" horiz-adv-x="2347" d="M1991 1378.5q0 53.5 45 53.5q41 0 41 -53.5t-41 -53.5q-45 0 -45 53.5zM2013 172v899h41v-899q0 -152 115 -152q53 0 125 52l20 -35q-72 -57 -147 -57q-154 -1 -154 192zM989 956v41h244v127q0 160 75.5 255.5t235.5 95.5q172 0 268 -136l-28 -26q-92 121 -240 121 q-270 0 -270 -310v-127h456v-41h-456v-956h-41v956h-244zM90 956v41h244v127q0 160 75.5 255.5t235.5 95.5q172 0 268 -136l-28 -26q-92 121 -240 121q-270 0 -270 -310v-127h456v-41h-456v-956h-41v956h-244z" />
<glyph unicode="&#xfb04;" horiz-adv-x="2379" d="M2007 190v1264h41v-1261q0 -172 153 -173q70 0 146 52l20 -35q-72 -57 -166 -57q-88 0 -141 52t-53 158zM989 956v41h244v127q0 160 75.5 255.5t235.5 95.5q172 0 268 -136l-28 -26q-92 121 -240 121q-270 0 -270 -310v-127h456v-41h-456v-956h-41v956h-244zM90 956v41 h244v127q0 160 75.5 255.5t235.5 95.5q172 0 268 -136l-28 -26q-92 121 -240 121q-270 0 -270 -310v-127h456v-41h-456v-956h-41v956h-244z" />
</font>
</defs>
</svg>
