<?xml version="1.0" encoding="utf-8"?>
<!-- Generator: Adobe Illustrator 16.0.0, SVG Export Plug-In . SVG Version: 6.00 Build 0)  -->
<!DOCTYPE svg PUBLIC "-//W3C//DTD SVG 1.1//EN" "http://www.w3.org/Graphics/SVG/1.1/DTD/svg11.dtd">
<svg version="1.1" id="Layer_1" xmlns="http://www.w3.org/2000/svg" xmlns:xlink="http://www.w3.org/1999/xlink" x="0px" y="0px"
	 width="107.286px" height="50px" viewBox="0 0 107.286 50" enable-background="new 0 0 107.286 50" xml:space="preserve">
<polyline fill="#FFFFFF" points="71.524,50 0,50 0,0 "/>
<polyline fill="#FFFFFF" points="107.286,50 35.762,50 35.762,0 "/>
<rect x="43.143" y="31.429" fill="#EFEEEE" width="7.428" height="0.762"/>
<rect x="34.381" y="36.381" fill="#EFEEEE" width="7.428" height="0.762"/>
<rect x="25.238" y="28.952" fill="#EFEEEE" width="7.428" height="0.762"/>
<rect x="14.381" y="35.619" fill="#EFEEEE" width="7.428" height="0.762"/>
<rect x="5.429" y="27.238" fill="#EFEEEE" width="7.428" height="0.762"/>
<rect x="3.333" y="41.715" fill="#EFEEEE" width="7.428" height="0.762"/>
<rect x="47.714" y="41.715" fill="#EFEEEE" width="7.428" height="0.762"/>
<rect x="75.905" y="44.571" fill="#EFEEEE" width="7.428" height="0.762"/>
<rect x="58.762" y="36.381" fill="#EFEEEE" width="7.428" height="0.762"/>
<rect x="49.929" y="23.429" fill="#EFEEEE" width="7.428" height="0.762"/>
<rect x="23.072" y="44.952" fill="#EFEEEE" width="7.428" height="0.762"/>
<rect x="12.857" y="19.238" fill="#EFEEEE" width="7.428" height="0.762"/>
<rect x="2.571" y="12.952" fill="#EFEEEE" width="7.428" height="0.762"/>
<rect x="39.429" y="13.714" fill="#EFEEEE" width="7.428" height="0.762"/>
<rect x="76.763" y="37.143" fill="#EFEEEE" width="7.428" height="0.762"/>
<rect x="58.762" y="46.667" fill="#EFEEEE" width="7.428" height="0.762"/>
<g>
</g>
<g>
</g>
<g>
</g>
<g>
</g>
<g>
</g>
<g>
</g>
</svg>
