<?xml version="1.0" encoding="utf-8"?>
<!-- Generator: Adobe Illustrator 16.0.0, SVG Export Plug-In . SVG Version: 6.00 Build 0)  -->
<!DOCTYPE svg PUBLIC "-//W3C//DTD SVG 1.1//EN" "http://www.w3.org/Graphics/SVG/1.1/DTD/svg11.dtd">
<svg version="1.1" id="Layer_1" xmlns="http://www.w3.org/2000/svg" xmlns:xlink="http://www.w3.org/1999/xlink" x="0px" y="0px"
	 width="24px" height="24px" viewBox="0 0 24 24" enable-background="new 0 0 24 24" xml:space="preserve">
<g>
	<path fill="#EFEEEE" d="M15.706,23.564c-0.611,0.109-0.815-0.265-0.815-0.576c0-0.393,0-1.689,0-3.3
		c0-1.126-0.373-1.847-0.813-2.222c2.675-0.296,5.489-1.313,5.489-5.926c0-1.313-0.469-2.393-1.235-3.221
		c0.125-0.312,0.531-1.532-0.126-3.189c-1-0.313-3.298,1.235-3.298,1.235c-0.952-0.266-1.984-0.406-3.002-0.406
		c-1.017,0-2.049,0.141-3.002,0.406c0,0-2.298-1.548-3.315-1.235C4.948,6.788,5.354,8.007,5.479,8.32
		c-0.766,0.829-1.235,1.908-1.235,3.221c0,4.598,2.799,5.63,5.473,5.926c-0.344,0.313-0.656,0.83-0.766,1.612
		c-0.688,0.312-2.439,0.843-3.488-1.002c-0.656-1.143-1.845-1.235-1.845-1.235c-1.173-0.016-0.079,0.735-0.079,0.735
		c0.782,0.359,1.329,1.751,1.329,1.751c0.705,2.142,4.051,1.423,4.051,1.423c0,1,0.016,1.954,0.016,2.237
		c0,0.312-0.219,0.686-0.83,0.576c-4.769-1.594-8.209-6.098-8.209-11.397c0-6.63,5.38-12.009,12.009-12.009
		c6.628,0,12.009,5.379,12.009,12.009C23.914,17.467,20.474,21.971,15.706,23.564z"/>
</g>
</svg>
