<?xml version="1.0" encoding="utf-8"?>
<!-- Generator: Adobe Illustrator 16.0.0, SVG Export Plug-In . SVG Version: 6.00 Build 0)  -->
<!DOCTYPE svg PUBLIC "-//W3C//DTD SVG 1.1//EN" "http://www.w3.org/Graphics/SVG/1.1/DTD/svg11.dtd">
<svg version="1.1" id="the-logo" xmlns="http://www.w3.org/2000/svg" xmlns:xlink="http://www.w3.org/1999/xlink" x="0px" y="0px"
	 width="126px" height="35px" viewBox="0 0 126 35" enable-background="new 0 0 126 35" xml:space="preserve">
<g>
	<polygon fill="#DE544B" points="41.895,11.524 40.952,11.524 35.409,17.891 35.376,17.891 35.376,11.524 34.577,11.524 
		34.577,22.984 35.376,22.984 35.376,19.038 37.701,16.38 41.479,22.984 42.396,22.984 38.245,15.769 	"/>
	<path fill="#DE544B" d="M47.769,11.321c-1.403,0-2.544,0.537-3.42,1.609c-0.878,1.073-1.316,2.5-1.316,4.283
		c0,1.799,0.442,3.247,1.323,4.342c0.883,1.096,2.018,1.644,3.408,1.644c1.39,0,2.522-0.55,3.4-1.647s1.317-2.544,1.317-4.338
		c0-1.783-0.437-3.21-1.312-4.283C50.294,11.858,49.161,11.321,47.769,11.321z M50.577,21.032c-0.712,0.957-1.647,1.436-2.807,1.436
		c-1.172,0-2.114-0.479-2.828-1.436c-0.712-0.956-1.069-2.229-1.069-3.819c0-1.574,0.357-2.828,1.069-3.761
		c0.715-0.933,1.657-1.401,2.828-1.401c1.155,0,2.089,0.466,2.801,1.397c0.715,0.931,1.07,2.186,1.07,3.765
		C51.641,18.803,51.287,20.076,50.577,21.032z"/>
	<path fill="#DE544B" d="M61.913,18.555c0,0.74,0.034,1.853,0.103,3.336h-0.069l-1.307-2.275l-4.814-8.091h-0.831v11.46h0.747
		v-7.113c-0.007-0.707-0.042-1.791-0.111-3.251H55.7l1.307,2.283l4.812,8.082h0.842v-11.46h-0.748V18.555z"/>
	<path fill="#DE544B" d="M70.163,17.078l-1.739-0.764c-0.301-0.141-0.529-0.256-0.684-0.344c-0.158-0.087-0.357-0.221-0.6-0.399
		c-0.242-0.178-0.42-0.391-0.529-0.637c-0.111-0.246-0.166-0.525-0.166-0.836c0-0.623,0.229-1.119,0.688-1.49
		s1.069-0.557,1.833-0.557c1.089,0,1.996,0.394,2.726,1.181l0.477-0.535c-0.848-0.917-1.916-1.375-3.201-1.375
		c-0.949,0-1.74,0.264-2.371,0.794c-0.632,0.528-0.947,1.203-0.947,2.024c0,0.402,0.068,0.765,0.207,1.09
		c0.14,0.326,0.338,0.599,0.592,0.82c0.254,0.22,0.494,0.396,0.721,0.526c0.227,0.13,0.49,0.265,0.791,0.407l1.739,0.79
		c0.706,0.312,1.229,0.629,1.565,0.952c0.338,0.322,0.506,0.803,0.506,1.442c0,0.685-0.26,1.239-0.78,1.663
		c-0.521,0.426-1.212,0.638-2.072,0.638c-1.336-0.006-2.462-0.524-3.379-1.554l-0.501,0.561c1.031,1.148,2.316,1.724,3.861,1.725
		c1.098,0,1.982-0.291,2.656-0.871s1.01-1.317,1.01-2.211c0-0.797-0.209-1.418-0.627-1.859
		C71.518,17.817,70.927,17.423,70.163,17.078z"/>
	<polygon fill="#DE544B" points="73.314,12.221 76.973,12.221 76.973,22.986 77.771,22.986 77.771,12.221 81.414,12.221 
		81.414,11.525 73.314,11.525 	"/>
	<path fill="#DE544B" d="M89.756,16.694c0.521-0.526,0.783-1.236,0.783-2.13c0-2.026-1.257-3.04-3.773-3.04h-3.271v11.46h0.797
		v-5.262h2.428l3.102,5.262h0.923l-3.149-5.314C88.512,17.546,89.234,17.22,89.756,16.694z M86.55,17.06h-2.258v-4.839h2.258
		c1.054,0,1.841,0.184,2.365,0.55c0.522,0.367,0.784,0.965,0.784,1.794C89.699,16.228,88.65,17.06,86.55,17.06z"/>
	<path fill="#DE544B" d="M100.023,18.504c0,1.409-0.287,2.422-0.862,3.039s-1.328,0.926-2.259,0.926
		c-0.905,0-1.644-0.307-2.209-0.922c-0.567-0.613-0.852-1.628-0.852-3.043v-6.979h-0.798v7.063c0,1.658,0.36,2.842,1.085,3.548
		c0.721,0.708,1.646,1.062,2.773,1.062c1.13,0,2.059-0.357,2.789-1.07c0.731-0.713,1.097-1.894,1.097-3.54v-7.063h-0.765V18.504z"/>
	<path fill="#DE544B" d="M108.088,22.467c-1.229,0-2.201-0.473-2.921-1.418c-0.718-0.945-1.077-2.218-1.077-3.82
		c0-1.584,0.365-2.844,1.094-3.778c0.731-0.933,1.724-1.401,2.974-1.401c0.973,0,1.808,0.388,2.504,1.164l0.467-0.518
		c-0.776-0.917-1.767-1.375-2.971-1.375c-1.472,0-2.659,0.534-3.558,1.6c-0.901,1.067-1.351,2.505-1.351,4.313
		s0.442,3.254,1.332,4.336c0.89,1.085,2.046,1.628,3.474,1.628c1.33,0,2.465-0.548,3.403-1.64l-0.467-0.5
		C110.16,21.997,109.191,22.467,108.088,22.467z"/>
	<polygon fill="#DE544B" points="112.121,11.525 112.121,12.221 115.779,12.221 115.779,22.986 116.578,22.986 116.578,12.221 
		120.221,12.221 120.221,11.525 	"/>
</g>
<g>
	<polygon fill="#A03937" points="21.1,10.973 7.019,7.453 7.019,12.356 14.79,18.184 	"/>
	<polygon fill="#DE544B" points="26.632,12.356 25.406,7.453 24.18,7.453 21.1,10.973 	"/>
	<polygon fill="#DE544B" points="24.18,7.453 7.019,7.453 21.1,10.973 	"/>
	<polygon fill="#DE544B" points="7.019,27.064 26.632,27.064 14.79,18.184 	"/>
	<polygon fill="#DE544B" points="7.019,12.356 7.019,27.064 14.79,18.184 	"/>
</g>
</svg>
